<svg width="146" height="146" viewBox="0 0 146 146" fill="none" xmlns="http://www.w3.org/2000/svg">
<path d="M144.005 45.1131C146.318 51.0405 146.332 56.7272 144.046 62.173C141.76 67.6188 137.901 71.402 132.467 73.5227C129.38 74.7276 126.36 75.1948 123.409 74.9238C120.457 74.6528 116.897 73.5523 112.728 71.6216C108.511 69.5678 104.745 68.1206 101.428 67.2805C97.9409 66.365 95.2087 66.2929 93.2328 67.0641L86.5644 69.6669C87.0073 72.6246 86.7124 75.5145 85.6795 78.3368C84.4747 81.0838 82.6342 83.2963 80.1588 84.9741L82.7615 91.6425C83.5809 93.7418 85.5328 95.8259 88.6173 97.8949C91.7012 99.9642 95.17 101.741 99.0224 103.226C102.875 104.71 105.986 106.484 108.357 108.547C110.679 110.487 112.467 113.062 113.72 116.273C115.889 121.83 115.745 127.294 113.287 132.664C110.782 137.911 106.565 141.691 100.637 144.005C94.7099 146.318 89.0473 146.394 83.6498 144.232C78.204 141.946 74.3966 138.024 72.2276 132.467C70.2033 127.281 70.3205 122.112 72.5792 116.962C74.838 111.811 76.6856 107.248 78.1221 103.272C79.5586 99.2961 79.7467 95.9497 78.6863 93.233L76.0836 86.5646C73.0024 87.0557 70.15 86.6748 67.5265 85.422C64.7313 84.0938 62.5566 82.1678 61.0022 79.6439L54.3339 82.2465C51.1232 83.4997 48.012 87.56 45.0003 94.4275L42.6287 99.8356C39.5418 106.875 35.1581 111.503 29.4776 113.72C23.9206 115.889 18.5185 115.721 13.2715 113.215C7.85284 110.634 4.01082 106.441 1.74551 100.637C-0.567917 94.7102 -0.581923 89.0232 1.70404 83.5778C3.98977 78.1317 7.84935 74.3483 13.2829 72.2275C19.5808 69.7694 26.7134 70.5436 34.6802 74.5488C42.7707 78.5064 48.7916 79.7137 52.7433 78.1714L59.4117 75.5687C58.7971 72.5357 59.1161 69.7071 60.369 67.0837C61.4501 64.3848 63.3145 62.2342 65.962 60.632L63.3593 53.9636C61.7205 49.7648 56.6918 46.1777 48.2731 43.2022C39.8064 40.1037 34.392 35.5286 32.0303 29.4776C29.8615 23.9209 30.0915 18.4944 32.7208 13.1994C35.1782 7.82887 39.309 4.01093 45.113 1.74562C51.0402 -0.567805 56.7272 -0.581791 62.1726 1.70422C67.6188 3.98995 71.4021 7.84926 73.5228 13.2828C75.5472 18.4696 75.4672 23.5524 73.2843 28.5313C71.1005 33.5098 69.315 38.0493 67.9265 42.1485C66.5382 46.2484 66.374 49.6559 67.4345 52.3731L70.0372 59.0415C76.35 57.716 81.329 59.8989 84.9738 65.5917L91.6422 62.989C95.3466 61.5431 98.8968 56.6002 102.29 48.1603C105.685 39.7209 110.345 34.3439 116.273 32.0302C121.829 29.8614 127.256 30.0917 132.551 32.7208C137.922 35.1786 141.739 39.3089 144.005 45.1131Z" fill="url(#paint0_linear_96_1637)"/>
<defs>
<linearGradient id="paint0_linear_96_1637" x1="-8.83866" y1="98.1468" x2="146.795" y2="45.0262" gradientUnits="userSpaceOnUse">
<stop stop-color="#3FBCA1"/>
<stop offset="0.802885" stop-color="#3FBCA1"/>
</linearGradient>
</defs>
</svg>
