<svg preserveAspectRatio="none" width="100%" height="100%" overflow="visible" style="display: block;" viewBox="0 0 62 62" fill="none" xmlns="http://www.w3.org/2000/svg">
<g id="Group">
<path id="Vector" d="M30.6915 61.3829C28.1338 61.3829 26.0025 60.557 24.2974 58.9052C22.5923 57.2534 21.7398 55.2554 21.7398 52.9108C21.7398 51.5788 22.0062 50.3797 22.539 49.3141C23.0719 48.2485 24.0043 47.0761 25.3364 45.7975C26.7218 44.5186 27.8141 43.3198 28.6134 42.2007C29.4659 41.0286 29.8922 40.0161 29.8922 39.1635V36.2862C28.72 36.0198 27.6809 35.487 26.7751 34.6878C25.9226 33.8352 25.3631 32.8227 25.0966 31.6506H22.2193C21.3135 31.6506 20.2478 32.0769 19.0223 32.9295C17.7968 33.7818 16.6245 34.821 15.5056 36.0465C14.3866 37.272 13.2677 38.1777 12.1487 38.7639C11.083 39.3501 9.85751 39.6432 8.47213 39.6432C6.07436 39.6432 4.04955 38.7906 2.39777 37.0854C0.799258 35.3805 0 33.249 0 30.6915C0 28.1338 0.799258 26.0025 2.39777 24.2974C4.04955 22.5923 6.07436 21.7398 8.47213 21.7398C10.71 21.7398 12.6282 22.539 14.2268 24.1375C15.8253 25.7361 17.2639 27.0948 18.5428 28.2138C19.8216 29.3327 21.0471 29.8922 22.2193 29.8922H25.0966C25.3631 28.6667 25.9226 27.6543 26.7751 26.855C27.6809 26.0025 28.72 25.4696 29.8922 25.2565V22.3792C29.8922 20.9938 28.8265 19.2354 26.6952 17.1041L25.0167 15.4256C22.8321 13.241 21.7398 10.9232 21.7398 8.47213C21.7398 6.07436 22.5923 4.07619 24.2974 2.47769C26.0558 0.825898 28.1871 0 30.6915 0C33.249 0 35.3805 0.825898 37.0854 2.47769C38.7906 4.1295 39.6432 6.12764 39.6432 8.47213C39.6432 11.1896 38.3109 13.7472 35.6469 16.145C32.9826 18.596 31.6506 20.6741 31.6506 22.3792V25.2565C32.8761 25.4696 33.8886 26.0025 34.6878 26.855C35.5404 27.6543 36.0732 28.6667 36.2862 29.8922H39.1635C40.9752 29.8922 43.0534 28.5334 45.3979 25.816C47.7955 23.0985 50.2999 21.7398 52.9108 21.7398C55.3084 21.7398 57.3068 22.619 58.9052 24.3773C60.557 26.0824 61.3829 28.1871 61.3829 30.6915C61.3829 33.249 60.557 35.3805 58.9052 37.0854C57.2534 38.7906 55.2554 39.6432 52.9108 39.6432C50.6728 39.6432 48.7813 38.8704 47.236 37.3254C45.691 35.7801 44.2522 34.4481 42.9202 33.3291C41.5878 32.2101 40.3359 31.6506 39.1635 31.6506H36.2862C35.8599 34.2081 34.3149 35.7534 31.6506 36.2862V39.1635C31.6506 40.7619 32.9826 42.8137 35.6469 45.3178C38.3109 47.8222 39.6432 50.353 39.6432 52.9108C39.6432 55.3084 38.7639 57.3068 37.0056 58.9052C35.3004 60.557 33.1959 61.3829 30.6915 61.3829Z" fill="url(#paint0_linear_11_577)"/>
</g>
<defs>
<linearGradient id="paint0_linear_11_577" x1="48.339" y1="9.82126" x2="13.5042" y2="45.2699" gradientUnits="userSpaceOnUse">
<stop offset="0.197115" stop-color="#D8B4FE"/>
<stop offset="1" stop-color="#FF8F8F"/>
</linearGradient>
</defs>
</svg>
