<svg preserveAspectRatio="none" width="100%" height="100%" overflow="visible" style="display: block;" viewBox="0 0 62 62" fill="none" xmlns="http://www.w3.org/2000/svg">
<g id="Group">
<path id="Vector" fill-rule="evenodd" clip-rule="evenodd" d="M15.3459 30.6915C23.8211 30.6915 30.6917 23.8209 30.6917 15.3457C30.6917 23.8209 37.5622 30.6915 46.0374 30.6915C37.5622 30.6915 30.6917 37.562 30.6917 46.0372C30.6917 37.562 23.8211 30.6915 15.3459 30.6915ZM15.3459 30.6915C6.87074 30.6915 0.000209263 37.562 0.000209263 46.0372C0.000209263 54.5123 6.87074 61.3829 15.3459 61.3829C23.8211 61.3829 30.6917 54.5123 30.6917 46.0372C30.6917 54.5123 37.5622 61.3829 46.0374 61.3829C54.5125 61.3829 61.3831 54.5123 61.3831 46.0372C61.3831 37.562 54.5125 30.6915 46.0374 30.6915C54.5125 30.6915 61.3831 23.8209 61.3831 15.3457C61.3831 6.87053 54.5125 0 46.0374 0C37.5622 0 30.6917 6.87053 30.6917 15.3457C30.6917 6.87053 23.8211 0 15.3459 0C6.87074 0 0.000209263 6.87053 0.000209263 15.3457C0.000209263 23.8209 6.87074 30.6915 15.3459 30.6915Z" fill="url(#paint0_linear_11_544)"/>
</g>
<defs>
<linearGradient id="paint0_linear_11_544" x1="4.29701" y1="7.97978" x2="54.9379" y2="55.0912" gradientUnits="userSpaceOnUse">
<stop stop-color="#E9B8FF"/>
<stop offset="1" stop-color="#F9ECFF"/>
</linearGradient>
</defs>
</svg>
