<svg preserveAspectRatio="none" width="100%" height="100%" overflow="visible" style="display: block;" viewBox="0 0 62 62" fill="none" xmlns="http://www.w3.org/2000/svg">
<g id="Group">
<path id="Vector" fill-rule="evenodd" clip-rule="evenodd" d="M13.2758 53.6035L13.2758 61.3829H17.4157V53.6035C17.4157 50.5678 19.8766 48.107 22.9122 48.107H22.9272H30.6915H38.4552H38.4708C41.5062 48.107 43.9673 50.5678 43.9673 53.6035V61.3829H48.107V53.6035C48.107 50.5678 50.5682 48.107 53.6038 48.107H53.6186H61.3829V43.9673H53.6186H53.6038C50.5682 43.9673 48.107 41.5065 48.107 38.4708V30.6915V22.9122C48.107 19.8765 50.5682 17.4156 53.6038 17.4156L53.6186 17.4157H61.3829V13.2758H53.6186H53.6038C50.5682 13.2758 48.107 10.8149 48.107 7.77924V0L43.9673 1.80957e-07V7.77924C43.9673 10.8149 41.5062 13.2758 38.4708 13.2758H38.4558H30.6915H22.9272H22.9122C19.8766 13.2758 17.4157 10.8149 17.4157 7.77924V1.34156e-06L13.2758 1.52253e-06V7.77924C13.2758 10.8149 10.8149 13.2758 7.77921 13.2758L7.76426 13.2758H0L2.30339e-08 17.4157H7.76383L7.77921 17.4156C10.8149 17.4156 13.2758 19.8765 13.2758 22.9122L13.2758 30.6915L13.2758 38.4708C13.2758 41.5065 10.8149 43.9673 7.77921 43.9673H7.76426H0L2.30339e-08 48.107H7.76383H7.77921C10.8149 48.107 13.2758 50.5678 13.2758 53.6035ZM43.9673 30.6915V22.9122C43.9673 19.8765 41.5062 17.4156 38.4708 17.4156L38.4552 17.4157H30.6915H22.9272L22.9122 17.4156C19.8766 17.4156 17.4157 19.8765 17.4157 22.9122V30.6915V38.4708C17.4157 41.5065 19.8766 43.9673 22.9122 43.9673H22.9272H30.6915H38.4558H38.4708C41.5062 43.9673 43.9673 41.5065 43.9673 38.4708V30.6915Z" fill="url(#paint0_linear_11_550)"/>
</g>
<defs>
<linearGradient id="paint0_linear_11_550" x1="-7.38228e-07" y1="30.6915" x2="61.3829" y2="30.6915" gradientUnits="userSpaceOnUse">
<stop stop-color="#A7B5FF"/>
<stop offset="1" stop-color="#F3ACFF"/>
</linearGradient>
</defs>
</svg>
