<svg preserveAspectRatio="none" width="100%" height="100%" overflow="visible" style="display: block;" viewBox="0 0 62 62" fill="none" xmlns="http://www.w3.org/2000/svg">
<g id="Group">
<path id="Vector" fill-rule="evenodd" clip-rule="evenodd" d="M38.3333 1.50914L32.4716 26.3941L45.9227 4.65282C46.3395 3.97948 47.275 3.87078 47.8348 4.43065L56.9523 13.548C57.5121 14.1079 57.4034 15.0435 56.7301 15.4601L34.9889 28.9115L59.8738 23.0496C60.6445 22.868 61.3829 23.4528 61.3829 24.2446V37.1385C61.3829 37.9303 60.6445 38.515 59.8738 38.3333L34.9889 32.4716L56.7301 45.923C57.4034 46.3395 57.5121 47.275 56.9523 47.8351L47.8348 56.9523C47.275 57.5121 46.3395 57.4034 45.9227 56.7301L32.4716 34.9889L38.3333 59.8738C38.515 60.6445 37.93 61.3829 37.1385 61.3829H24.2445C23.4527 61.3829 22.868 60.6445 23.0496 59.8738L28.9114 34.9889L15.4601 56.7301C15.0435 57.4034 14.1079 57.5121 13.548 56.9523L4.43065 47.8348C3.87078 47.275 3.97948 46.3395 4.65282 45.9227L26.3939 32.4716L1.50914 38.3333C0.738455 38.515 0 37.9303 0 37.1385V24.2445C5.98219e-07 23.4527 0.738452 22.868 1.50914 23.0496L26.394 28.9114L4.65282 15.4601C3.97948 15.0435 3.87078 14.1079 4.43065 13.548L13.548 4.43068C14.1079 3.87081 15.0435 3.97951 15.4601 4.65285L28.9114 26.3941L23.0496 1.50914C22.868 0.738455 23.4527 1.19644e-06 24.2445 1.12722e-06L37.1385 0C37.9303 0 38.515 0.738452 38.3333 1.50914ZM30.6915 34.1992C32.6287 34.1992 34.1992 32.6287 34.1992 30.6915C34.1992 28.7543 32.6287 27.1838 30.6915 27.1838C28.7543 27.1838 27.1838 28.7543 27.1838 30.6915C27.1838 32.6287 28.7543 34.1992 30.6915 34.1992Z" fill="url(#paint0_linear_11_597)"/>
</g>
<defs>
<linearGradient id="paint0_linear_11_597" x1="4.2968" y1="7.97978" x2="54.9377" y2="55.0912" gradientUnits="userSpaceOnUse">
<stop stop-color="#E9B8FF"/>
<stop offset="1" stop-color="#F9ECFF"/>
</linearGradient>
</defs>
</svg>
