<svg preserveAspectRatio="none" width="100%" height="100%" overflow="visible" style="display: block;" viewBox="0 0 68 68" fill="none" xmlns="http://www.w3.org/2000/svg">
<g id="Group">
<path id="Vector" fill-rule="evenodd" clip-rule="evenodd" d="M36.1721 1.35042C36.1721 0.604605 35.5675 0 34.8217 0H32.6995C31.9537 0 31.3491 0.604605 31.3491 1.35042V14.4073C31.3491 15.8916 29.3026 16.2894 28.7466 14.9132L23.8554 2.80705C23.576 2.11553 22.7889 1.78144 22.0975 2.06083L20.1299 2.85578C19.4384 3.13517 19.1043 3.92224 19.3836 4.61376L24.5981 17.52C25.1492 18.884 23.4314 20.021 22.3911 18.9808L12.5483 9.13798C12.0209 8.61061 11.1659 8.61061 10.6385 9.13798L9.13798 10.6385C8.61061 11.1659 8.61061 12.0209 9.13798 12.5483L17.9768 21.3871C19.032 22.4423 17.8487 24.1769 16.4812 23.5795L5.02678 18.5749C4.34333 18.2763 3.54726 18.5883 3.24865 19.2717L2.39904 21.2163C2.10044 21.8998 2.41241 22.6959 3.09585 22.9945L16.2949 28.7612C17.6357 29.3471 17.2175 31.3491 15.7542 31.3491H1.35042C0.604605 31.3491 0 31.9537 0 32.6995V34.8217C0 35.5675 0.604605 36.1721 1.35042 36.1721H15.7541C17.2174 36.1721 17.6357 38.1741 16.2948 38.7599L3.09587 44.5269C2.41243 44.8253 2.10046 45.6214 2.39906 46.3047L3.24867 48.2493C3.54726 48.9329 4.34337 49.2449 5.02678 48.9461L16.4812 43.9418C17.8487 43.3442 19.032 45.0788 17.9768 46.1342L9.13798 54.9727C8.61061 55.5004 8.61061 56.3552 9.13798 56.8826L10.6385 58.3832C11.1659 58.9106 12.0209 58.9106 12.5483 58.3832L22.3911 48.5403C23.4314 47.5001 25.1492 48.6372 24.5981 50.0011L19.3836 62.9075C19.1043 63.5989 19.4383 64.3858 20.1299 64.6654L22.0974 65.4604C22.7889 65.7396 23.576 65.4058 23.8554 64.714L28.7466 52.6081C29.3026 51.2317 31.3491 51.6297 31.3491 53.1139V66.1708C31.3491 66.9165 31.9537 67.5212 32.6995 67.5212H34.8217C35.5675 67.5212 36.1721 66.9165 36.1721 66.1708V53.1139C36.1721 51.6297 38.2187 51.2317 38.7747 52.6081L43.6656 64.714C43.9452 65.4058 44.7321 65.7396 45.4239 65.4604L47.3914 64.6654C48.0829 64.3858 48.4171 63.5989 48.1376 62.9075L42.9232 50.0011C42.3719 48.6372 44.0897 47.5001 45.1302 48.5403L54.9727 58.3832C55.5004 58.9106 56.3552 58.9106 56.8826 58.3832L58.3832 56.8826C58.9106 56.3552 58.9106 55.5004 58.3832 54.9727L49.5444 46.1342C48.4893 45.0788 49.6726 43.3442 51.04 43.9418L62.4942 48.9461C63.1779 49.2449 63.974 48.9329 64.2724 48.2493L65.1222 46.3047C65.4206 45.6214 65.1087 44.8253 64.4254 44.5269L51.2263 38.7599C49.8857 38.1741 50.3036 36.1721 51.7672 36.1721H66.1708C66.9165 36.1721 67.5212 35.5675 67.5212 34.8217V32.6995C67.5212 31.9537 66.9165 31.3491 66.1708 31.3491H51.7672C50.3036 31.3491 49.8853 29.3471 51.2263 28.7612L64.4254 22.9945C65.1087 22.6959 65.4206 21.8998 65.1222 21.2163L64.2724 19.2717C63.974 18.5883 63.1779 18.2763 62.4942 18.5749L51.04 23.5795C49.6726 24.1769 48.4893 22.4423 49.5444 21.3871L58.3832 12.5483C58.9106 12.0209 58.9106 11.1659 58.3832 10.6385L56.8826 9.13795C56.3552 8.61057 55.5004 8.61057 54.9727 9.13795L45.1302 18.9808C44.0897 20.021 42.3719 18.884 42.9232 17.52L48.1376 4.61376C48.4171 3.92224 48.0829 3.13517 47.3914 2.85578L45.4239 2.06083C44.7321 1.78144 43.9452 2.11553 43.6656 2.80705L38.7747 14.9132C38.2187 16.2894 36.1721 15.8916 36.1721 14.4073V1.35042Z" fill="var(--fill-0, #D8B4FE)"/>
</g>
</svg>
