<svg preserveAspectRatio="none" width="100%" height="100%" overflow="visible" style="display: block;" viewBox="0 0 62 62" fill="none" xmlns="http://www.w3.org/2000/svg">
<g id="Group">
<path id="Vector" fill-rule="evenodd" clip-rule="evenodd" d="M30.6915 0C22.2163 0 15.3457 6.87053 15.3457 15.3457C6.87053 15.3457 6.70783e-07 22.2163 0 30.6915C0 39.1666 6.87053 46.0372 15.3457 46.0372C15.3457 54.5123 22.2163 61.3829 30.6915 61.3829C39.1666 61.3829 46.0372 54.5123 46.0372 46.0372C54.5123 46.0372 61.3829 39.1666 61.3829 30.6915C61.3829 22.2163 54.5123 15.3457 46.0372 15.3457C46.0372 6.87053 39.1666 0 30.6915 0ZM43.0619 18.3209C43.0619 11.4889 37.5234 5.9504 30.6915 5.9504C23.8594 5.9504 18.3209 11.4889 18.3209 18.3209C11.4889 18.3209 5.9504 23.8594 5.9504 30.6915C5.9504 37.5234 11.4889 43.0619 18.3209 43.0619C18.3209 49.8942 23.8594 55.4324 30.6915 55.4324C37.5234 55.4324 43.0619 49.8942 43.0619 43.0619C49.8942 43.0619 55.4324 37.5234 55.4324 30.6915C55.4324 23.8594 49.8942 18.3209 43.0619 18.3209ZM21.2961 21.2961C21.2961 16.1072 25.5025 11.9008 30.6915 11.9008C35.8805 11.9008 40.0867 16.1072 40.0867 21.2961C45.2757 21.2961 49.482 25.5025 49.482 30.6915C49.482 35.8805 45.2757 40.0867 40.0867 40.0867C40.0867 45.2757 35.8805 49.482 30.6915 49.482C25.5025 49.482 21.2961 45.2757 21.2961 40.0867C16.1072 40.0867 11.9008 35.8805 11.9008 30.6915C11.9008 25.5025 16.1072 21.2961 21.2961 21.2961Z" fill="url(#paint0_linear_11_533)"/>
</g>
<defs>
<linearGradient id="paint0_linear_11_533" x1="4.2968" y1="7.97978" x2="54.9377" y2="55.0912" gradientUnits="userSpaceOnUse">
<stop stop-color="#E9B8FF"/>
<stop offset="1" stop-color="#F9ECFF"/>
</linearGradient>
</defs>
</svg>
