<svg width="139" height="139" viewBox="0 0 139 139" fill="none" xmlns="http://www.w3.org/2000/svg">
<path fill-rule="evenodd" clip-rule="evenodd" d="M64.5356 139H74.4643V95.0391L90.9323 135.799L100.138 132.08L83.2433 90.2639L115.134 122.154L122.154 115.134L91.5887 84.5682L131.199 101.874L135.174 92.7763L93.2617 74.4643H139V64.5356H93.2618L135.174 46.2238L131.199 37.1255L91.5888 54.4317L122.154 23.8663L115.134 16.8461L83.2433 48.7362L100.138 6.92012L90.9323 3.20117L74.4643 43.9608V0H64.5356V43.9608L48.0676 3.20117L38.8623 6.92012L55.7564 48.7362L23.8663 16.8461L16.8461 23.8663L47.4115 54.4317L7.80067 37.1255L3.82597 46.2238L45.7379 64.5356H0V74.4643H45.7386L3.82597 92.7763L7.80067 101.874L47.4115 84.5682L16.8461 115.134L23.8663 122.154L55.7564 90.264L38.8623 132.08L48.0676 135.799L64.5356 95.0391V139Z" fill="url(#paint0_linear_1_1463)"/>
<defs>
<linearGradient id="paint0_linear_1_1463" x1="129.27" y1="120.93" x2="14.595" y2="14.2475" gradientUnits="userSpaceOnUse">
<stop stop-color="#92003F"/>
<stop offset="1" stop-color="#FF878D"/>
</linearGradient>
</defs>
</svg>
