<svg width="192" height="176" viewBox="0 0 192 176" fill="none" xmlns="http://www.w3.org/2000/svg">
<g filter="url(#filter0_d_1_1464)">
<path d="M133.128 11.0914C137.526 11.6049 141.047 14.0863 143.033 17.7597C150.499 31.2576 152.664 45.8063 153.663 59.5604L153.662 59.5603C153.663 59.5648 153.663 59.5713 153.664 59.5792C153.665 59.5971 153.668 59.624 153.67 59.6586C153.676 59.7282 153.684 59.8309 153.694 59.9622C153.715 60.2253 153.745 60.6045 153.781 61.0696C153.853 62.0006 153.952 63.2764 154.059 64.6524L154.63 72.1815L154.632 72.2014C154.737 73.9981 155.592 75.4835 157.438 77.7753L158.29 78.8099L158.304 78.8262L158.318 78.8436C158.691 79.3157 159.039 79.715 159.41 80.1411C159.687 80.4582 159.976 80.7908 160.283 81.1632L160.595 81.5496L160.617 81.5778L160.637 81.6067C164.568 87.0943 168.651 92.7755 172.434 98.425L172.449 98.4474L172.464 98.4708C174.2 101.282 175.583 103.907 176.709 106.408L177.012 105.765L178.244 109.17C179.566 112.82 178.733 116.775 177.803 119.26C174.434 130.107 165.997 136.272 157.92 141.151L157.921 141.152C149.59 146.217 140.333 149.939 130.955 151.952L128.795 152.592L128.735 152.611L128.675 152.624C122.651 153.879 115.955 155.487 108.741 154.645L104.077 154.101C100.904 153.73 97.6648 153.353 94.5532 153.287L94.4816 153.285L94.4108 153.277C92.7944 153.088 91.1262 152.967 89.4185 152.844C87.723 152.722 85.9878 152.598 84.2938 152.4L80.5313 151.961C75.0809 151.325 69.8921 149.293 65.3247 147.872L65.2821 147.859L65.2406 147.843L61.1718 146.305C60.1256 145.949 59.0876 145.559 58.0776 145.177C57.051 144.789 56.0523 144.412 55.0534 144.073L54.9967 144.053L54.9406 144.029C53.3832 143.356 52.3807 142.831 51.0003 142.383L50.9644 142.371L50.9285 142.358C37.3096 137.173 26.7784 128.269 18.7089 114.722L17.4471 112.661C16.2356 110.681 15.1878 108.905 14.4369 106.991L14.4359 106.991C11.1141 99.452 11.8499 91.8191 16.7044 85.0666C24.5698 73.95 35.2289 66.8007 45.5783 60.8098C46.5592 60.2373 47.4655 59.1019 47.9759 58.1096C49.3513 55.3957 50.3545 52.9165 51.6165 50.2198C53.9902 44.361 56.8648 38.2197 60.4778 32.4527C63.6977 27.2872 67.2097 22.2996 71.1652 17.5121L72.4048 15.9893C75.1611 12.4945 79.6073 6.67378 87.0204 7.53923C88.1987 7.67679 89.3775 7.80316 90.7704 8.6751C92.5802 9.39936 94.552 10.5707 96.1512 12.5685C97.6955 14.4978 98.8185 17.1048 99.186 20.6133L99.2491 21.3276L99.2501 21.3445L99.2512 21.3603C99.8787 33.6826 99.4775 46.3179 97.8398 58.6976C99.4306 58.9102 101.734 59.2336 103.867 59.5369C105.369 59.7504 106.795 59.9543 107.846 60.1056C107.914 60.1154 107.981 60.1245 108.046 60.1339L108.924 52.6147L108.927 52.5925C110.419 42.455 113.973 27.8033 122.058 16.0925C124.591 12.3738 128.678 10.5721 133.128 11.0914ZM132.628 17.5999C130.944 17.374 129.25 17.976 128.13 19.5926C121.843 28.958 118 41.2164 116.163 53.0577L115.078 62.3549C114.922 63.6894 114.58 65.0995 113.55 66.0317C112.462 67.017 111.015 67.1252 109.519 66.8766C104.272 66.2641 98.809 65.6269 93.2386 64.5157C92.5868 64.4064 92.1384 63.9816 91.9206 63.7454C91.6402 63.4414 91.4044 63.0763 91.2199 62.7148C90.8731 62.0351 90.5497 61.054 90.6593 60.1147L90.6623 60.0885L90.6662 60.0634C92.6292 47.1358 93.216 34.3506 92.4774 21.2558L92.4278 20.6954C92.2921 19.4058 92.0094 18.244 91.4772 17.2662C90.8922 16.1913 89.9663 15.2624 88.4039 14.6372C87.0296 14.1204 85.9204 14.0606 84.9848 14.2459C84.0348 14.4341 83.1504 14.8987 82.2713 15.6015C81.3832 16.3115 80.5417 17.23 79.6739 18.2773C78.8863 19.2279 77.9025 20.5061 77.0531 21.5079L77.054 21.509C73.3534 26.0577 69.9326 30.789 66.7928 35.704L66.7936 35.705C61.7861 43.7171 58.9279 51.9644 54.7909 60.6829L54.7779 60.7099L54.7639 60.7368C53.6988 62.7658 51.7626 65.0955 49.4866 66.2823C39.2098 72.372 29.66 79.025 22.8902 88.76L22.8841 88.7701L22.8771 88.7791C19.5474 93.4106 18.955 98.4154 21.112 103.688C22.3467 106.108 23.5529 108.466 24.9147 110.689C31.8211 121.96 41.0668 130.594 53.5554 135.312L53.5704 135.317C55.276 135.982 56.9783 136.725 58.6304 137.427C60.2971 138.135 61.9292 138.808 63.5617 139.367L63.5608 139.367C69.7129 141.332 75.4788 143.632 81.6105 144.645L81.6154 144.646C85.9389 145.375 90.3291 145.664 94.823 145.94C99.2926 146.215 103.87 146.477 108.445 147.167L108.465 147.17L108.484 147.173C115.587 148.438 122.18 146.609 129.348 144.965L129.362 144.962L129.377 144.959C138.111 143.138 146.433 139.773 154.181 134.986L154.192 134.979L154.202 134.973C161.858 130.411 168.269 125.512 170.822 117.1L171.186 115.9L171.33 115.917C171.746 114.297 171.862 112.694 171.451 111.558L171.442 111.532L171.433 111.506C170.374 108.204 168.569 104.914 166.668 101.826C162.88 96.3441 159.152 90.7759 155.232 85.4768L154.675 84.7579C154.11 84.0454 153.523 83.3485 152.926 82.6295C152.139 81.6842 151.337 80.705 150.612 79.6743C149.15 77.5959 147.951 75.2385 147.692 72.2633L147.69 72.2434L147.689 72.2245C147.429 67.9365 147.135 63.9533 146.726 59.655L146.724 59.6214C145.734 45.9956 143.652 32.8932 137.018 20.7945L137.01 20.7798L137.003 20.7662C136.045 18.9263 134.342 17.8297 132.628 17.5999Z" fill="#FCFCFC" stroke="white" stroke-width="3"/>
<path d="M172.862 111.047C173.571 112.808 173.105 115.499 172.407 117.553C169.68 126.539 162.825 131.688 155.12 136.279C147.079 141.137 138.745 144.587 129.834 146.445C122.781 148.062 115.693 149.98 108.372 148.668C99.3784 147.313 90.3419 147.631 81.5162 146.143C75.2312 145.104 69.2547 142.728 63.2256 140.804C59.8523 139.648 56.5318 138.04 53.1762 136.733C40.1699 131.859 30.8156 123.14 23.7865 111.49C22.3772 109.19 20.9854 106.739 19.8946 104.324C17.3494 98.688 17.9994 93.1202 21.8095 87.9213C28.7576 78.0553 38.5671 71.1163 48.8906 65C50.704 63.839 52.6053 61.9255 53.5861 60.0571C57.6322 51.5301 60.6074 43.0306 65.6718 34.9275C68.8448 29.9593 72.3013 25.1768 76.0411 20.5799C79.5778 16.4168 82.6882 10.6787 89.0986 13.2574C92.8881 14.7676 93.891 17.9353 94.124 21.1657C94.8704 34.3705 94.28 47.2668 92.3001 60.3059C92.1771 61.3593 93.2053 63.0046 93.6567 63.0574C99.0389 63.9908 104.456 64.6232 109.856 65.4062C112.565 65.7224 113.59 64.7744 113.739 62.1987C114.09 59.1891 114.459 56.029 114.828 52.8689C116.685 40.8831 120.603 28.2229 127.047 18.7556C129.982 14.5222 136.117 15.5435 138.484 20.0907C145.292 32.3255 147.375 45.8389 148.37 59.5304C148.781 63.8493 149.076 67.8496 149.337 72.1509C149.793 77.3902 153.54 80.5732 156.579 84.5888C160.531 89.9313 164.298 95.5571 168.082 101.032C170.006 104.155 171.894 107.579 173.012 111.065L172.862 111.047ZM154.834 112.603C156.344 108.814 154.704 105.877 153.435 102.373C151.82 97.9136 149.94 93.1181 146.511 89.8198C143.349 86.8575 138.79 85.4101 134.275 84.883L133.974 84.8479C132.469 84.6722 130.814 84.4789 129.425 84.6218C122.415 84.5661 115.956 87.6253 110.729 91.8961C104.494 96.9644 99.6677 104.333 100.136 113.387C100.218 116.599 101.169 120.219 103.649 122.491C106.475 125.719 111.742 126.334 115.788 126.959C123.56 128.324 131.463 127.264 139.037 125.097C145.019 123.508 152.458 118.58 154.967 112.771L154.834 112.603ZM98.0079 129.001C98.0079 129.001 98.0431 128.701 98.0606 128.55C98.0958 128.249 98.1485 127.798 97.8826 127.462C97.6695 126.674 96.4657 126.533 95.8989 126.162C94.695 126.022 93.8273 125.615 92.6586 125.174C92.0567 125.104 91.3394 124.715 90.8528 124.963C90.1982 125.344 89.8445 125.76 89.4909 126.177C88.8187 126.708 88.1289 127.391 88.0411 128.143C87.9357 129.046 89.3702 129.823 89.9194 130.345C90.2204 130.38 90.8674 131.371 91.3188 131.424C91.9207 131.494 92.5754 131.113 92.9115 130.847C93.5485 130.616 94.336 130.403 94.8226 130.155C95.3092 129.907 95.9463 129.676 96.4328 129.428C96.7338 129.463 97.707 128.966 97.8926 128.683L98.0079 129.001ZM75.6543 123.189C80.6629 122.095 85.0222 117.418 84.9474 112.834C84.9733 102.159 81.4228 90.7627 72.7606 83.9552C69.395 81.4268 65.4726 79.7486 61.1438 78.9382C56.7798 78.4287 52.3456 78.5211 48.4079 79.5867C41.2849 81.8058 36.918 87.8548 34.1711 94.3981C32.2722 98.9049 35.1986 105.195 38.0073 108.574C46.5664 118.877 62.1507 126.493 75.4862 123.322L75.6543 123.189Z" fill="#282828"/>
<path d="M153.435 102.373C154.704 105.877 156.344 108.814 154.834 112.604C152.325 118.412 144.886 123.34 138.904 124.929C131.33 127.096 123.578 128.173 115.655 126.791C111.592 126.317 106.325 125.702 103.516 122.323C101.187 120.068 100.086 116.431 100.003 113.219C99.535 104.165 104.361 96.7964 110.596 91.7281C115.823 87.4573 122.282 84.3981 129.292 84.4538C130.646 84.6119 132.337 84.5042 133.841 84.6799L134.142 84.715C138.657 85.2421 143.216 86.6896 146.379 89.6518C149.807 92.9501 151.67 97.8961 153.302 102.205L153.435 102.373ZM124.985 118.728C125.635 113.16 126.285 107.593 126.183 101.937C126.198 99.1933 123.603 96.6023 119.256 95.9423C115.193 95.468 111.441 96.2502 110.187 99.1544C109.048 102.377 108.193 105.785 107.39 108.742L106.722 114.461C106.722 114.461 106.564 115.815 106.494 116.417C106.301 118.072 107.294 120.019 108.374 121.212C109.739 122.592 111.341 123.237 113.28 123.615C115.537 123.879 117.83 123.842 119.891 123.167C122.439 122.244 124.438 120.8 124.835 118.711L124.985 118.728Z" fill="#FCFCFC"/>
<path d="M126.333 101.955C126.285 107.593 125.936 113.196 125.135 118.746C124.889 120.853 122.873 122.448 120.191 123.202C118.28 123.894 115.82 124.065 113.58 123.651C111.624 123.422 109.906 122.459 108.675 121.248C107.461 119.886 106.751 118.125 106.794 116.452C106.882 115.7 106.952 115.098 107.022 114.496L107.69 108.778C108.643 105.838 109.499 102.43 110.487 99.1895C111.742 96.2853 115.511 95.3526 119.557 95.9775C123.921 96.4869 126.499 99.2284 126.483 101.972L126.333 101.955Z" fill="#282828"/>
<path d="M98.0607 128.55C98.0607 128.55 98.0256 128.851 98.008 129.002C97.9729 129.302 96.8668 129.631 96.5483 129.746C95.9112 129.977 95.4246 130.225 94.9381 130.474C94.4515 130.722 93.5135 130.917 93.0269 131.166C92.5403 131.414 91.8857 131.795 91.4342 131.742C90.9828 131.69 90.3182 130.849 90.0348 130.664C89.3351 130.124 88.2191 129.231 88.1565 128.462C88.2619 127.559 88.9341 127.027 89.6063 126.495C89.96 126.079 90.3136 125.663 90.9682 125.282C91.6053 125.051 92.3226 125.44 92.774 125.492C93.9427 125.934 94.828 126.19 96.0143 126.481C96.7316 126.87 97.7849 126.993 97.9981 127.78C97.9629 128.081 98.2112 128.568 98.1761 128.869L98.0607 128.55Z" fill="#FCFCFC"/>
<path d="M85.1146 112.701C85.1895 117.285 80.8301 121.963 75.8215 123.056C62.486 126.227 46.9017 118.612 38.3426 108.308C35.5339 104.929 32.5899 98.7896 34.5064 94.1323C37.2532 87.589 41.6202 81.54 48.7432 79.321C52.6809 78.2554 57.1327 78.0124 61.4791 78.6724C65.8079 79.4828 69.7303 81.161 73.0959 83.6894C81.7581 90.4969 85.291 102.044 85.2826 112.568L85.1146 112.701ZM77.8464 110.937L78.514 105.219C78.3261 102.909 78.1909 100.148 77.8876 97.5191L77.6821 95.3596C77.424 93.6517 76.2102 92.2897 74.3242 91.4594C72.8897 90.6818 71.4024 90.3556 69.7471 90.1624C65.3832 89.6529 62.243 91.7268 61.6258 94.4003C60.2234 99.8802 59.2724 105.413 58.9233 111.016C58.4841 114.778 63.4347 118.101 68.8871 118.433C72.7996 118.89 76.444 116.417 77.1666 112.841C77.2544 112.088 77.3247 111.486 77.395 110.884L77.8464 110.937Z" fill="#FCFCFC"/>
<path d="M78.5148 105.219L77.8472 110.937C77.8472 110.937 77.6891 112.291 77.6189 112.893C76.7458 116.452 73.119 118.774 69.3394 118.486C63.8869 118.154 59.0868 114.848 59.3756 111.069C59.7246 105.466 60.6756 99.933 62.078 94.453C62.6952 91.7795 65.8179 89.8561 70.1994 90.2151C71.8547 90.4083 73.51 90.6016 74.7764 91.5121C76.5119 92.3248 77.8938 93.5539 78.1344 95.4124L78.3399 97.5718C78.6431 100.2 78.7784 102.962 78.9663 105.272L78.5148 105.219Z" fill="#282828"/>
</g>
<defs>
<filter id="filter0_d_1_1464" x="0.000391006" y="3.05184" width="191.331" height="172.226" filterUnits="userSpaceOnUse" color-interpolation-filters="sRGB">
<feFlood flood-opacity="0" result="BackgroundImageFix"/>
<feColorMatrix in="SourceAlpha" type="matrix" values="0 0 0 0 0 0 0 0 0 0 0 0 0 0 0 0 0 0 127 0" result="hardAlpha"/>
<feOffset dy="8"/>
<feGaussianBlur stdDeviation="5.45"/>
<feComposite in2="hardAlpha" operator="out"/>
<feColorMatrix type="matrix" values="0 0 0 0 0 0 0 0 0 0 0 0 0 0 0 0 0 0 0.58 0"/>
<feBlend mode="normal" in2="BackgroundImageFix" result="effect1_dropShadow_1_1464"/>
<feBlend mode="normal" in="SourceGraphic" in2="effect1_dropShadow_1_1464" result="shape"/>
</filter>
</defs>
</svg>
