<svg width="120" height="120" viewBox="0 0 120 120" fill="none" xmlns="http://www.w3.org/2000/svg">
<path d="M50.9251 6.89143C53.0537 2.14975 59.6463 1.78515 62.2847 6.2632L79.0863 34.7791C79.7595 35.9218 80.771 36.8273 81.9814 37.3705L112.176 50.9252C116.918 53.0537 117.282 59.6463 112.804 62.2848L84.2885 79.0863C83.1453 79.7596 82.2399 80.771 81.6968 81.9815L68.1421 112.176C66.0136 116.918 59.421 117.282 56.7825 112.804L39.981 84.2885C39.3076 83.1454 38.2962 82.2399 37.0862 81.6968L6.89142 68.1422C2.14975 66.0136 1.78515 59.421 6.26319 56.7826L34.7791 39.981C35.9218 39.3076 36.8273 38.2962 37.3705 37.0862L50.9251 6.89143Z" fill="url(#paint0_linear_1_1472)"/>
<defs>
<linearGradient id="paint0_linear_1_1472" x1="22.1365" y1="27.7971" x2="93.5277" y2="109.463" gradientUnits="userSpaceOnUse">
<stop stop-color="#39ABAD"/>
<stop offset="1" stop-color="#AFE5E2"/>
</linearGradient>
</defs>
</svg>
