<svg width="139" height="139" viewBox="0 0 139 139" fill="none" xmlns="http://www.w3.org/2000/svg">
<path fill-rule="evenodd" clip-rule="evenodd" d="M74.4644 0H64.5357V43.9609L48.0677 3.20105L38.862 6.92036L55.7567 48.7361L23.8664 16.8458L16.8458 23.8664L47.4113 54.4318L7.80075 37.1256L3.82569 46.2237L45.7383 64.5357H0V74.4644H45.7382L3.8257 92.7762L7.80075 101.874L47.4112 84.5683L16.8458 115.134L23.8664 122.154L55.7567 90.2638L38.862 132.08L48.0677 135.799L64.5357 95.0392V139H74.4644V95.0392L90.9324 135.799L100.138 132.08L83.2436 90.2638L115.134 122.154L122.154 115.134L91.5885 84.5683L131.199 101.874L135.174 92.7762L93.2621 74.4644H139V64.5357H93.2614L135.174 46.2237L131.199 37.1256L91.5885 54.4318L122.154 23.8663L115.134 16.8458L83.2436 48.736L100.138 6.92036L90.9324 3.20105L74.4644 43.9609V0Z" fill="url(#paint0_linear_1_1889)"/>
<defs>
<linearGradient id="paint0_linear_1_1889" x1="9.73" y1="18.07" x2="124.405" y2="124.753" gradientUnits="userSpaceOnUse">
<stop stop-color="#27746F"/>
<stop offset="1" stop-color="#5DE0D7"/>
</linearGradient>
</defs>
</svg>
