<svg preserveAspectRatio="none" width="100%" height="100%" overflow="visible" style="display: block;" viewBox="0 0 24 24" fill="none" xmlns="http://www.w3.org/2000/svg">
<g id="In">
<path id="Vector" d="M12.6153 13.1098V23.3875H8.48142V5.84686H12.4326V8.8274H12.6382C13.0417 7.84531 13.685 7.06496 14.5681 6.48636C15.4588 5.90777 16.5589 5.61847 17.8684 5.61847C19.0789 5.61847 20.1333 5.87732 21.0316 6.39501C21.9376 6.9127 22.638 7.66259 23.1329 8.64468C23.6353 9.62677 23.8827 10.8182 23.8751 12.219V23.3875H19.7412V12.8585C19.7412 11.6861 19.4367 10.7687 18.8276 10.1064C18.2262 9.44406 17.3926 9.11289 16.3267 9.11289C15.6035 9.11289 14.9602 9.27276 14.3968 9.59251C13.8411 9.90465 13.4033 10.3576 13.0835 10.9515C12.7714 11.5453 12.6153 12.2647 12.6153 13.1098Z" fill="var(--fill-0, white)"/>
<path id="Vector_2" d="M4.2367 0V23.3875H0V0H4.2367Z" fill="var(--fill-0, white)"/>
</g>
</svg>
