<svg preserveAspectRatio="none" width="100%" height="100%" overflow="visible" style="display: block;" viewBox="0 0 235 214" fill="none" xmlns="http://www.w3.org/2000/svg">
<g id="Group 40119">
<path id="Vector" fill-rule="evenodd" clip-rule="evenodd" d="M74.4644 0H64.5357V43.9609L48.0677 3.20104L38.862 6.92036L55.7567 48.7361L23.8664 16.8458L16.8458 23.8664L47.4113 54.4318L7.80075 37.1256L3.82569 46.2237L45.7383 64.5357H0V74.4644H45.7382L3.8257 92.7762L7.80075 101.874L47.4112 84.5683L16.8458 115.134L23.8664 122.154L55.7567 90.2638L38.862 132.08L48.0677 135.799L64.5357 95.0392V139H74.4644V95.0392L90.9324 135.799L100.138 132.08L83.2436 90.2638L115.134 122.154L122.154 115.134L91.5885 84.5683L131.199 101.874L135.174 92.7762L93.2621 74.4644H139V64.5357H93.2614L135.174 46.2237L131.199 37.1256L91.5885 54.4318L122.154 23.8663L115.134 16.8458L83.2436 48.736L100.138 6.92036L90.9324 3.20104L74.4644 43.9609V0Z" fill="url(#paint0_linear_10_399)"/>
<g id="Group" filter="url(#filter0_d_10_399)">
<path id="Vector_2" d="M179.064 62.0914C183.462 62.6049 186.984 65.0863 188.97 68.7597C196.435 82.2576 198.601 96.8063 199.6 110.56L199.599 110.56C199.599 110.565 199.6 110.571 199.601 110.579C199.602 110.597 199.604 110.624 199.607 110.659C199.612 110.728 199.62 110.831 199.631 110.962C199.651 111.225 199.681 111.604 199.718 112.07C199.79 113.001 199.889 114.276 199.995 115.652L200.567 123.182L200.568 123.201C200.673 124.998 201.528 126.484 203.374 128.775L204.227 129.81L204.241 129.826L204.254 129.844C204.628 130.316 204.975 130.715 205.347 131.141C205.623 131.458 205.913 131.791 206.219 132.163L206.531 132.55L206.553 132.578L206.574 132.607C210.505 138.094 214.588 143.776 218.37 149.425L218.385 149.447L218.4 149.471C220.137 152.282 221.519 154.907 222.646 157.408L222.948 156.765L224.181 160.17C225.502 163.82 224.67 167.775 223.739 170.26C220.371 181.107 211.934 187.272 203.857 192.151L203.858 192.152C195.527 197.217 186.27 200.939 176.891 202.952L174.732 203.592L174.672 203.611L174.611 203.624C168.588 204.879 161.892 206.487 154.678 205.645L150.013 205.101C146.84 204.73 143.601 204.353 140.49 204.287L140.418 204.285L140.347 204.277C138.731 204.088 137.063 203.967 135.355 203.844C133.66 203.722 131.924 203.598 130.23 203.4L126.468 202.961C121.017 202.325 115.829 200.293 111.261 198.872L111.219 198.859L111.177 198.843L107.108 197.305C106.062 196.949 105.024 196.559 104.014 196.177C102.987 195.789 101.989 195.412 100.99 195.073L100.933 195.053L100.877 195.029C99.3197 194.356 98.3172 193.831 96.9368 193.383L96.9009 193.371L96.8651 193.358C83.2461 188.173 72.715 179.269 64.6454 165.722L63.3836 163.661C62.1721 161.681 61.1243 159.905 60.3734 157.991L60.3724 157.991C57.0506 150.452 57.7864 142.819 62.641 136.067C70.5063 124.95 81.1654 117.801 91.5148 111.81C92.4957 111.237 93.4021 110.102 93.9124 109.11C95.2879 106.396 96.291 103.916 97.5531 101.22C99.9267 95.361 102.801 89.2197 106.414 83.4527C109.634 78.2872 113.146 73.2996 117.102 68.5121L118.341 66.9893C121.098 63.4945 125.544 57.6738 132.957 58.5392C134.135 58.6768 135.314 58.8032 136.707 59.6751C138.517 60.3994 140.489 61.5707 142.088 63.5685C143.632 65.4978 144.755 68.1048 145.123 71.6133L145.186 72.3276L145.187 72.3445L145.188 72.3603C145.815 84.6826 145.414 97.3179 143.776 109.698C145.367 109.91 147.67 110.234 149.804 110.537C151.305 110.75 152.732 110.954 153.782 111.106C153.85 111.115 153.917 111.125 153.982 111.134L154.86 103.615L154.864 103.592C156.355 93.455 159.909 78.8033 167.994 67.0925C170.527 63.3738 174.615 61.5721 179.064 62.0914ZM178.565 68.5999C176.88 68.374 175.187 68.976 174.066 70.5926C167.78 79.958 163.937 92.2164 162.1 104.058L161.014 113.355C160.859 114.689 160.517 116.1 159.487 117.032C158.398 118.017 156.951 118.125 155.456 117.877C150.209 117.264 144.746 116.627 139.175 115.516C138.523 115.406 138.075 114.982 137.857 114.745C137.577 114.441 137.341 114.076 137.156 113.715C136.81 113.035 136.486 112.054 136.596 111.115L136.599 111.089L136.603 111.063C138.566 98.1358 139.153 85.3506 138.414 72.2558L138.364 71.6954C138.229 70.4058 137.946 69.244 137.414 68.2662C136.829 67.1913 135.903 66.2624 134.34 65.6372C132.966 65.1204 131.857 65.0606 130.921 65.2459C129.971 65.4341 129.087 65.8987 128.208 66.6015C127.32 67.3115 126.478 68.23 125.61 69.2773C124.823 70.2279 123.839 71.5061 122.99 72.5079L122.99 72.509C119.29 77.0577 115.869 81.789 112.729 86.704L112.73 86.705C107.723 94.7171 104.864 102.964 100.727 111.683L100.714 111.71L100.7 111.737C99.6354 113.766 97.6991 116.095 95.4232 117.282C85.1464 123.372 75.5966 130.025 68.8267 139.76L68.8206 139.77L68.8136 139.779C65.484 144.411 64.8916 149.415 67.0485 154.688C68.2833 157.108 69.4895 159.466 70.8512 161.689C77.7576 172.96 87.0033 181.594 99.4919 186.312L99.507 186.317C101.212 186.982 102.915 187.725 104.567 188.427C106.234 189.135 107.866 189.808 109.498 190.367L109.497 190.367C115.649 192.332 121.415 194.632 127.547 195.645L127.552 195.646C131.875 196.375 136.266 196.664 140.759 196.94C145.229 197.215 149.806 197.477 154.381 198.167L154.401 198.17L154.421 198.173C161.523 199.438 168.117 197.609 175.284 195.965L175.298 195.962L175.313 195.959C184.047 194.138 192.37 190.773 200.118 185.986L200.128 185.979L200.139 185.973C207.794 181.411 214.205 176.512 216.758 168.1L217.122 166.9L217.267 166.917C217.682 165.297 217.799 163.694 217.387 162.558L217.379 162.532L217.37 162.506C216.311 159.204 214.505 155.914 212.605 152.826C208.816 147.344 205.088 141.776 201.169 136.477L200.611 135.758C200.046 135.045 199.46 134.349 198.862 133.63C198.076 132.684 197.274 131.705 196.549 130.674C195.086 128.596 193.887 126.239 193.628 123.263L193.627 123.243L193.625 123.225C193.365 118.936 193.071 114.953 192.662 110.655L192.66 110.621C191.67 96.9956 189.588 83.8932 182.954 71.7945L182.946 71.7798L182.939 71.7662C181.981 69.9263 180.278 68.8297 178.565 68.5999Z" fill="var(--fill-0, #FCFCFC)" stroke="var(--stroke-0, white)" stroke-width="3"/>
<path id="Vector_3" d="M218.798 162.047C219.507 163.808 219.041 166.499 218.343 168.553C215.616 177.539 208.761 182.688 201.056 187.279C193.015 192.137 184.681 195.587 175.77 197.445C168.717 199.062 161.629 200.98 154.308 199.668C145.314 198.313 136.278 198.631 127.452 197.143C121.167 196.104 115.191 193.728 109.162 191.804C105.788 190.648 102.468 189.04 99.1123 187.733C86.106 182.859 76.7517 174.14 69.7226 162.49C68.3133 160.19 66.9215 157.739 65.8307 155.324C63.2855 149.688 63.9355 144.12 67.7456 138.921C74.6937 129.055 84.5032 122.116 94.8267 116C96.6401 114.839 98.5414 112.926 99.5222 111.057C103.568 102.53 106.544 94.0306 111.608 85.9275C114.781 80.9594 118.237 76.1768 121.977 71.5799C125.514 67.4168 128.624 61.6787 135.035 64.2575C138.824 65.7676 139.827 68.9353 140.06 72.1657C140.806 85.3706 140.216 98.2668 138.236 111.306C138.113 112.359 139.141 114.005 139.593 114.057C144.975 114.991 150.392 115.623 155.792 116.406C158.501 116.722 159.527 115.774 159.675 113.199C160.026 110.189 160.395 107.029 160.764 103.869C162.621 91.8832 166.539 79.2229 172.983 69.7556C175.918 65.5222 182.053 66.5435 184.42 71.0908C191.228 83.3255 193.311 96.839 194.306 110.53C194.717 114.849 195.012 118.85 195.273 123.151C195.729 128.39 199.476 131.573 202.515 135.589C206.467 140.931 210.234 146.557 214.018 152.032C215.942 155.155 217.83 158.579 218.948 162.065L218.798 162.047ZM200.77 163.603C202.28 159.814 200.64 156.877 199.371 153.373C197.756 148.914 195.876 144.118 192.448 140.82C189.285 137.858 184.726 136.41 180.211 135.883L179.91 135.848C178.405 135.672 176.75 135.479 175.361 135.622C168.351 135.566 161.892 138.625 156.665 142.896C150.43 147.964 145.604 155.333 146.072 164.387C146.155 167.599 147.105 171.219 149.585 173.491C152.411 176.719 157.678 177.334 161.724 177.959C169.496 179.324 177.399 178.264 184.973 176.097C190.955 174.508 198.394 169.58 200.903 163.772L200.77 163.603ZM143.944 180.002C143.944 180.002 143.979 179.701 143.997 179.55C144.032 179.249 144.085 178.798 143.819 178.462C143.606 177.674 142.402 177.533 141.835 177.162C140.631 177.022 139.763 176.615 138.595 176.174C137.993 176.104 137.275 175.715 136.789 175.963C136.134 176.344 135.781 176.76 135.427 177.177C134.755 177.708 134.065 178.391 133.977 179.143C133.872 180.046 135.306 180.823 135.855 181.345C136.156 181.38 136.803 182.371 137.255 182.424C137.857 182.494 138.511 182.113 138.848 181.847C139.485 181.616 140.272 181.403 140.759 181.155C141.245 180.907 141.882 180.676 142.369 180.428C142.67 180.463 143.643 179.966 143.829 179.683L143.944 180.002ZM121.59 174.189C126.599 173.096 130.958 168.418 130.883 163.834C130.909 153.159 127.359 141.763 118.697 134.955C115.331 132.427 111.409 130.749 107.08 129.938C102.716 129.429 98.2817 129.521 94.344 130.587C87.221 132.806 82.8541 138.855 80.1072 145.398C78.2083 149.905 81.1347 156.195 83.9434 159.574C92.5025 169.878 108.087 177.493 121.422 174.322L121.59 174.189Z" fill="var(--fill-0, #282828)"/>
<path id="Vector_4" d="M199.371 153.373C200.64 156.877 202.28 159.814 200.77 163.604C198.262 169.412 190.822 174.34 184.841 175.929C177.266 178.096 169.514 179.173 161.591 177.791C157.528 177.317 152.261 176.702 149.452 173.323C147.123 171.068 146.022 167.431 145.939 164.219C145.471 155.165 150.297 147.796 156.533 142.728C161.76 138.457 168.218 135.398 175.228 135.454C176.582 135.612 178.273 135.504 179.778 135.68L180.078 135.715C184.593 136.242 189.152 137.69 192.315 140.652C195.743 143.95 197.606 148.896 199.238 153.205L199.371 153.373ZM170.921 169.728C171.571 164.16 172.222 158.593 172.119 152.937C172.134 150.193 169.539 147.602 165.192 146.942C161.129 146.468 157.377 147.25 156.123 150.154C154.984 153.377 154.129 156.785 153.326 159.742L152.658 165.461C152.658 165.461 152.5 166.815 152.43 167.417C152.237 169.072 153.23 171.019 154.311 172.212C155.675 173.592 157.277 174.237 159.216 174.616C161.473 174.879 163.766 174.842 165.827 174.167C168.376 173.244 170.375 171.8 170.771 169.711L170.921 169.728Z" fill="var(--fill-0, #FCFCFC)"/>
<path id="Vector_5" d="M172.269 152.955C172.221 158.593 171.872 164.196 171.072 169.746C170.826 171.853 168.809 173.448 166.128 174.202C164.217 174.894 161.756 175.065 159.517 174.651C157.561 174.422 155.843 173.459 154.611 172.248C153.397 170.886 152.688 169.125 152.731 167.452C152.818 166.7 152.889 166.098 152.959 165.496L153.627 159.778C154.58 156.838 155.435 153.43 156.424 150.19C157.678 147.285 161.448 146.353 165.493 146.977C169.857 147.487 172.435 150.228 172.42 152.972L172.269 152.955Z" fill="var(--fill-0, #282828)"/>
<path id="Vector_6" d="M143.997 179.55C143.997 179.55 143.962 179.851 143.944 180.002C143.909 180.302 142.803 180.631 142.484 180.746C141.847 180.977 141.361 181.225 140.874 181.473C140.388 181.722 139.45 181.917 138.963 182.166C138.476 182.414 137.822 182.795 137.37 182.742C136.919 182.69 136.254 181.849 135.971 181.664C135.271 181.124 134.155 180.231 134.093 179.462C134.198 178.559 134.87 178.027 135.542 177.495C135.896 177.079 136.25 176.663 136.904 176.282C137.541 176.051 138.259 176.44 138.71 176.492C139.879 176.934 140.764 177.19 141.95 177.481C142.668 177.87 143.721 177.993 143.934 178.78C143.899 179.081 144.147 179.568 144.112 179.869L143.997 179.55Z" fill="var(--fill-0, #FCFCFC)"/>
<path id="Vector_7" d="M131.051 163.701C131.126 168.286 126.767 172.963 121.758 174.056C108.423 177.227 92.8385 169.612 84.2794 159.308C81.4707 155.929 78.5267 149.79 80.4432 145.132C83.19 138.589 87.557 132.54 94.68 130.321C98.6177 129.255 103.069 129.012 107.416 129.672C111.745 130.483 115.667 132.161 119.033 134.689C127.695 141.497 131.228 153.044 131.219 163.568L131.051 163.701ZM123.783 161.937L124.451 156.219C124.263 153.909 124.128 151.148 123.824 148.519L123.619 146.36C123.361 144.652 122.147 143.29 120.261 142.459C118.826 141.682 117.339 141.356 115.684 141.162C111.32 140.653 108.18 142.727 107.563 145.4C106.16 150.88 105.209 156.413 104.86 162.016C104.421 165.778 109.372 169.101 114.824 169.433C118.736 169.89 122.381 167.417 123.103 163.841C123.191 163.088 123.262 162.486 123.332 161.884L123.783 161.937Z" fill="var(--fill-0, #FCFCFC)"/>
<path id="Vector_8" d="M124.451 156.219L123.783 161.937C123.783 161.937 123.625 163.291 123.555 163.893C122.682 167.452 119.055 169.774 115.275 169.486C109.823 169.154 105.023 165.848 105.312 162.069C105.661 156.466 106.612 150.933 108.014 145.453C108.631 142.779 111.754 140.856 116.135 141.215C117.791 141.408 119.446 141.602 120.713 142.512C122.448 143.325 123.83 144.554 124.07 146.412L124.276 148.572C124.579 151.2 124.714 153.962 124.902 156.272L124.451 156.219Z" fill="var(--fill-0, #282828)"/>
</g>
</g>
<defs>
<filter id="filter0_d_10_399" x="52.837" y="54.9518" width="177.531" height="158.426" filterUnits="userSpaceOnUse" color-interpolation-filters="sRGB">
<feFlood flood-opacity="0" result="BackgroundImageFix"/>
<feColorMatrix in="SourceAlpha" type="matrix" values="0 0 0 0 0 0 0 0 0 0 0 0 0 0 0 0 0 0 127 0" result="hardAlpha"/>
<feOffset dy="2"/>
<feGaussianBlur stdDeviation="2"/>
<feComposite in2="hardAlpha" operator="out"/>
<feColorMatrix type="matrix" values="0 0 0 0 0 0 0 0 0 0 0 0 0 0 0 0 0 0 0.34 0"/>
<feBlend mode="normal" in2="BackgroundImageFix" result="effect1_dropShadow_10_399"/>
<feBlend mode="normal" in="SourceGraphic" in2="effect1_dropShadow_10_399" result="shape"/>
</filter>
<linearGradient id="paint0_linear_10_399" x1="9.73" y1="18.07" x2="124.405" y2="124.753" gradientUnits="userSpaceOnUse">
<stop stop-color="#27746F"/>
<stop offset="1" stop-color="#5DE0D7"/>
</linearGradient>
</defs>
</svg>
