<svg preserveAspectRatio="none" width="100%" height="100%" overflow="visible" style="display: block;" viewBox="0 0 689 388" fill="none" xmlns="http://www.w3.org/2000/svg">
<g id="Group 40118">
<g id="Image">
</g>
<path id="Vector" fill-rule="evenodd" clip-rule="evenodd" d="M614.036 383H623.964V339.039L640.432 379.799L649.638 376.08L632.743 334.264L664.634 366.154L671.654 359.134L641.089 328.568L680.699 345.874L684.674 336.776L642.762 318.464H688.5V308.536H642.762L684.674 290.224L680.699 281.126L641.089 298.432L671.654 267.866L664.634 260.846L632.743 292.736L649.638 250.92L640.432 247.201L623.964 287.961V244H614.036V287.961L597.568 247.201L588.362 250.92L605.256 292.736L573.366 260.846L566.346 267.866L596.912 298.432L557.301 281.126L553.326 290.224L595.238 308.536H549.5V318.464H595.239L553.326 336.776L557.301 345.874L596.912 328.568L566.346 359.134L573.366 366.154L605.256 334.264L588.362 376.08L597.568 379.799L614.036 339.039V383Z" fill="url(#paint0_linear_11_556)"/>
<g id="Group" filter="url(#filter0_d_11_556)">
<path id="Vector_2" d="M554.023 169.091C558.421 169.605 561.942 172.086 563.929 175.76C571.394 189.258 573.56 203.806 574.559 217.56L574.558 217.56C574.558 217.565 574.559 217.571 574.559 217.579C574.561 217.597 574.563 217.624 574.566 217.659C574.571 217.728 574.579 217.831 574.589 217.962C574.61 218.225 574.64 218.605 574.677 219.07C574.749 220.001 574.848 221.276 574.954 222.652L575.526 230.182L575.527 230.201C575.632 231.998 576.487 233.484 578.333 235.775L579.186 236.81L579.2 236.826L579.213 236.844C579.587 237.316 579.934 237.715 580.306 238.141C580.582 238.458 580.872 238.791 581.178 239.163L581.49 239.55L581.512 239.578L581.533 239.607C585.464 245.094 589.547 250.776 593.329 256.425L593.344 256.447L593.359 256.471C595.096 259.282 596.478 261.907 597.605 264.408L597.907 263.765L599.14 267.17C600.461 270.82 599.629 274.775 598.698 277.26C595.33 288.107 586.893 294.272 578.816 299.151L578.817 299.152C570.486 304.217 561.229 307.939 551.85 309.952L549.691 310.592L549.631 310.611L549.57 310.624C543.547 311.879 536.851 313.487 529.637 312.645L524.972 312.101C521.799 311.73 518.56 311.353 515.449 311.287L515.377 311.285L515.306 311.277C513.69 311.088 512.022 310.967 510.314 310.844C508.619 310.723 506.883 310.598 505.189 310.401L501.427 309.961C495.976 309.325 490.788 307.293 486.22 305.872L486.178 305.859L486.136 305.843L482.067 304.305C481.021 303.949 479.983 303.559 478.973 303.177C477.946 302.789 476.948 302.412 475.949 302.073L475.892 302.053L475.836 302.029C474.279 301.357 473.276 300.831 471.896 300.383L471.86 300.371L471.824 300.358C458.205 295.173 447.674 286.269 439.604 272.722L438.343 270.661C437.131 268.681 436.083 266.905 435.332 264.991L435.331 264.991C432.01 257.452 432.745 249.819 437.6 243.067C445.465 231.95 456.124 224.801 466.474 218.81C467.455 218.237 468.361 217.102 468.871 216.11C470.247 213.396 471.25 210.916 472.512 208.22C474.886 202.361 477.76 196.22 481.373 190.453C484.593 185.287 488.105 180.3 492.061 175.512L493.3 173.989C496.057 170.495 500.503 164.674 507.916 165.539C509.094 165.677 510.273 165.803 511.666 166.675C513.476 167.399 515.448 168.571 517.047 170.569C518.591 172.498 519.714 175.105 520.082 178.613L520.145 179.328L520.146 179.344L520.147 179.36C520.774 191.683 520.373 204.318 518.735 216.698C520.326 216.91 522.629 217.234 524.763 217.537C526.264 217.75 527.69 217.954 528.741 218.106C528.809 218.115 528.876 218.125 528.941 218.134L529.819 210.615L529.823 210.592C531.314 200.455 534.868 185.803 542.953 174.093C545.486 170.374 549.574 168.572 554.023 169.091ZM553.524 175.6C551.839 175.374 550.146 175.976 549.025 177.593C542.739 186.958 538.896 199.216 537.059 211.058L535.973 220.355C535.818 221.689 535.476 223.1 534.446 224.032C533.357 225.017 531.91 225.125 530.415 224.877C525.168 224.264 519.705 223.627 514.134 222.516C513.482 222.406 513.034 221.982 512.816 221.745C512.536 221.441 512.3 221.076 512.115 220.715C511.769 220.035 511.445 219.054 511.555 218.115L511.558 218.089L511.562 218.063C513.525 205.136 514.112 192.351 513.373 179.256L513.323 178.695C513.188 177.406 512.905 176.244 512.373 175.266C511.788 174.191 510.862 173.262 509.299 172.637C507.925 172.12 506.816 172.061 505.88 172.246C504.93 172.434 504.046 172.899 503.167 173.602C502.279 174.312 501.437 175.23 500.569 176.277C499.782 177.228 498.798 178.506 497.949 179.508L497.949 179.509C494.249 184.058 490.828 188.789 487.688 193.704L487.689 193.705C482.682 201.717 479.823 209.964 475.686 218.683L475.673 218.71L475.659 218.737C474.594 220.766 472.658 223.096 470.382 224.282C460.105 230.372 450.556 237.025 443.786 246.76L443.78 246.77L443.773 246.779C440.443 251.411 439.851 256.415 442.008 261.688C443.242 264.108 444.448 266.466 445.81 268.689C452.717 279.96 461.962 288.594 474.451 293.312L474.466 293.317C476.171 293.982 477.874 294.725 479.526 295.427C481.193 296.135 482.825 296.808 484.457 297.368L484.456 297.367C490.608 299.332 496.374 301.632 502.506 302.645L502.511 302.646C506.834 303.375 511.225 303.664 515.718 303.94C520.188 304.215 524.765 304.477 529.34 305.167L529.36 305.17L529.38 305.173C536.482 306.438 543.076 304.609 550.243 302.965L550.257 302.962L550.272 302.959C559.006 301.138 567.329 297.773 575.077 292.986L575.087 292.979L575.098 292.974C582.753 288.411 589.164 283.512 591.717 275.1L592.081 273.9L592.226 273.917C592.641 272.297 592.758 270.694 592.346 269.558L592.338 269.532L592.329 269.506C591.27 266.204 589.464 262.914 587.564 259.826C583.775 254.344 580.047 248.776 576.128 243.477L575.57 242.758C575.005 242.045 574.419 241.349 573.821 240.63C573.035 239.684 572.233 238.705 571.508 237.674C570.045 235.596 568.846 233.239 568.587 230.263L568.586 230.243L568.584 230.225C568.324 225.937 568.03 221.953 567.621 217.655L567.619 217.621C566.629 203.996 564.547 190.893 557.913 178.795L557.905 178.78L557.898 178.766C556.94 176.926 555.237 175.83 553.524 175.6Z" fill="var(--fill-0, #FCFCFC)" stroke="var(--stroke-0, white)" stroke-width="3"/>
<path id="Vector_3" d="M593.757 269.047C594.466 270.808 594 273.499 593.302 275.553C590.575 284.539 583.72 289.688 576.015 294.279C567.974 299.137 559.64 302.587 550.729 304.445C543.676 306.062 536.588 307.98 529.267 306.668C520.273 305.313 511.237 305.631 502.411 304.143C496.126 303.104 490.15 300.728 484.121 298.804C480.747 297.648 477.427 296.04 474.071 294.733C461.065 289.859 451.711 281.14 444.682 269.49C443.272 267.19 441.88 264.739 440.79 262.324C438.244 256.688 438.895 251.12 442.705 245.921C449.653 236.055 459.462 229.116 469.786 223C471.599 221.839 473.5 219.926 474.481 218.057C478.527 209.53 481.502 201.031 486.567 192.928C489.74 187.959 493.196 183.177 496.936 178.58C500.473 174.417 503.583 168.679 509.994 171.257C513.783 172.768 514.786 175.935 515.019 179.166C515.765 192.371 515.175 205.267 513.195 218.306C513.072 219.359 514.1 221.005 514.552 221.057C519.934 221.991 525.351 222.623 530.751 223.406C533.46 223.722 534.486 222.775 534.634 220.199C534.985 217.189 535.354 214.029 535.723 210.869C537.58 198.883 541.498 186.223 547.942 176.756C550.877 172.522 557.012 173.544 559.379 178.091C566.187 190.326 568.27 203.839 569.265 217.53C569.676 221.849 569.971 225.85 570.232 230.151C570.688 235.39 574.435 238.573 577.474 242.589C581.426 247.931 585.193 253.557 588.977 259.032C590.901 262.155 592.789 265.579 593.907 269.065L593.757 269.047ZM575.729 270.604C577.239 266.814 575.599 263.877 574.33 260.373C572.715 255.914 570.835 251.118 567.407 247.82C564.244 244.858 559.685 243.41 555.17 242.883L554.869 242.848C553.364 242.672 551.709 242.479 550.32 242.622C543.31 242.566 536.851 245.625 531.624 249.896C525.389 254.964 520.563 262.333 521.031 271.387C521.114 274.599 522.064 278.219 524.544 280.491C527.37 283.719 532.637 284.334 536.683 284.959C544.455 286.324 552.358 285.264 559.932 283.097C565.914 281.508 573.353 276.58 575.862 270.772L575.729 270.604ZM518.903 287.002C518.903 287.002 518.938 286.701 518.956 286.55C518.991 286.249 519.044 285.798 518.778 285.462C518.565 284.674 517.361 284.534 516.794 284.162C515.59 284.022 514.722 283.615 513.554 283.174C512.952 283.104 512.234 282.715 511.748 282.963C511.093 283.344 510.74 283.761 510.386 284.177C509.714 284.708 509.024 285.391 508.936 286.143C508.831 287.046 510.265 287.823 510.814 288.345C511.115 288.38 511.762 289.371 512.214 289.424C512.816 289.494 513.47 289.113 513.807 288.847C514.444 288.616 515.231 288.403 515.718 288.155C516.204 287.907 516.841 287.676 517.328 287.428C517.629 287.463 518.602 286.966 518.788 286.683L518.903 287.002ZM496.549 281.189C501.558 280.096 505.917 275.418 505.842 270.834C505.868 260.16 502.318 248.763 493.656 241.955C490.29 239.427 486.368 237.749 482.039 236.938C477.675 236.429 473.241 236.521 469.303 237.587C462.18 239.806 457.813 245.855 455.066 252.398C453.167 256.905 456.094 263.195 458.902 266.574C467.461 276.878 483.046 284.493 496.381 281.322L496.549 281.189Z" fill="var(--fill-0, #282828)"/>
<path id="Vector_4" d="M574.33 260.373C575.599 263.877 577.239 266.814 575.729 270.604C573.221 276.412 565.781 281.34 559.8 282.929C552.225 285.096 544.473 286.173 536.55 284.791C532.487 284.317 527.22 283.702 524.411 280.323C522.082 278.068 520.981 274.431 520.898 271.219C520.43 262.165 525.256 254.796 531.491 249.728C536.719 245.457 543.177 242.398 550.187 242.454C551.541 242.612 553.232 242.504 554.737 242.68L555.037 242.715C559.552 243.242 564.111 244.69 567.274 247.652C570.702 250.95 572.565 255.896 574.197 260.205L574.33 260.373ZM545.88 276.728C546.53 271.161 547.18 265.593 547.078 259.937C547.093 257.193 544.498 254.602 540.151 253.942C536.088 253.468 532.336 254.25 531.082 257.154C529.943 260.377 529.088 263.785 528.285 266.742L527.617 272.461C527.617 272.461 527.459 273.815 527.389 274.417C527.196 276.072 528.189 278.019 529.27 279.212C530.634 280.592 532.236 281.237 534.175 281.616C536.432 281.879 538.725 281.842 540.786 281.167C543.335 280.244 545.334 278.8 545.73 276.711L545.88 276.728Z" fill="var(--fill-0, #FCFCFC)"/>
<path id="Vector_5" d="M547.228 259.955C547.18 265.593 546.831 271.196 546.031 276.746C545.785 278.853 543.768 280.448 541.087 281.202C539.176 281.894 536.715 282.065 534.476 281.651C532.52 281.422 530.802 280.459 529.57 279.248C528.356 277.886 527.647 276.125 527.69 274.452C527.777 273.7 527.848 273.098 527.918 272.496L528.586 266.778C529.539 263.838 530.394 260.43 531.383 257.19C532.637 254.285 536.407 253.353 540.452 253.977C544.816 254.487 547.394 257.228 547.379 259.972L547.228 259.955Z" fill="var(--fill-0, #282828)"/>
<path id="Vector_6" d="M518.956 286.55C518.956 286.55 518.921 286.851 518.903 287.002C518.868 287.303 517.762 287.631 517.443 287.746C516.806 287.977 516.32 288.225 515.833 288.474C515.347 288.722 514.409 288.917 513.922 289.166C513.435 289.414 512.781 289.795 512.329 289.742C511.878 289.69 511.213 288.849 510.93 288.664C510.23 288.124 509.114 287.232 509.052 286.462C509.157 285.559 509.829 285.027 510.501 284.495C510.855 284.079 511.209 283.663 511.863 283.282C512.5 283.051 513.218 283.44 513.669 283.492C514.838 283.934 515.723 284.19 516.909 284.481C517.627 284.87 518.68 284.993 518.893 285.78C518.858 286.081 519.106 286.568 519.071 286.869L518.956 286.55Z" fill="var(--fill-0, #FCFCFC)"/>
<path id="Vector_7" d="M506.01 270.701C506.085 275.286 501.726 279.963 496.717 281.056C483.382 284.227 467.797 276.612 459.238 266.308C456.43 262.93 453.486 256.79 455.402 252.132C458.149 245.589 462.516 239.54 469.639 237.321C473.577 236.255 478.028 236.012 482.375 236.672C486.704 237.483 490.626 239.161 493.992 241.689C502.654 248.497 506.187 260.044 506.178 270.568L506.01 270.701ZM498.742 268.937L499.41 263.219C499.222 260.909 499.087 258.148 498.783 255.519L498.578 253.36C498.32 251.652 497.106 250.29 495.22 249.459C493.785 248.682 492.298 248.356 490.643 248.162C486.279 247.653 483.139 249.727 482.522 252.4C481.119 257.88 480.168 263.413 479.819 269.016C479.38 272.778 484.33 276.101 489.783 276.433C493.695 276.89 497.34 274.417 498.062 270.841C498.15 270.088 498.221 269.486 498.291 268.884L498.742 268.937Z" fill="var(--fill-0, #FCFCFC)"/>
<path id="Vector_8" d="M499.41 263.219L498.742 268.937C498.742 268.937 498.584 270.291 498.514 270.893C497.641 274.452 494.014 276.774 490.234 276.486C484.782 276.154 479.982 272.848 480.271 269.069C480.62 263.466 481.571 257.933 482.973 252.453C483.59 249.78 486.713 247.856 491.094 248.215C492.75 248.408 494.405 248.602 495.672 249.512C497.407 250.325 498.789 251.554 499.029 253.412L499.235 255.572C499.538 258.2 499.673 260.962 499.861 263.272L499.41 263.219Z" fill="var(--fill-0, #282828)"/>
</g>
<g id="Group_2">
<path id="Vector_9" d="M50.9251 31.8579C53.0537 27.1162 59.6463 26.7516 62.2847 31.2296L79.0863 59.7456C79.7595 60.8883 80.771 61.7937 81.9814 62.3369L112.176 75.8916C116.918 78.0202 117.282 84.6127 112.804 87.2512L84.2885 104.053C83.1453 104.726 82.2399 105.737 81.6968 106.948L68.1421 137.142C66.0136 141.884 59.421 142.249 56.7825 137.77L39.981 109.255C39.3076 108.112 38.2962 107.206 37.0862 106.663L6.89142 93.1086C2.14975 90.98 1.78515 84.3875 6.26319 81.749L34.7791 64.9474C35.9218 64.2741 36.8273 63.2626 37.3705 62.0526L50.9251 31.8579Z" fill="url(#paint1_linear_11_556)"/>
</g>
</g>
<defs>
<filter id="filter0_d_11_556" x="420.896" y="161.052" width="191.331" height="172.226" filterUnits="userSpaceOnUse" color-interpolation-filters="sRGB">
<feFlood flood-opacity="0" result="BackgroundImageFix"/>
<feColorMatrix in="SourceAlpha" type="matrix" values="0 0 0 0 0 0 0 0 0 0 0 0 0 0 0 0 0 0 127 0" result="hardAlpha"/>
<feOffset dy="8"/>
<feGaussianBlur stdDeviation="5.45"/>
<feComposite in2="hardAlpha" operator="out"/>
<feColorMatrix type="matrix" values="0 0 0 0 0 0 0 0 0 0 0 0 0 0 0 0 0 0 0.58 0"/>
<feBlend mode="normal" in2="BackgroundImageFix" result="effect1_dropShadow_11_556"/>
<feBlend mode="normal" in="SourceGraphic" in2="effect1_dropShadow_11_556" result="shape"/>
</filter>
<linearGradient id="paint0_linear_11_556" x1="678.77" y1="364.93" x2="564.095" y2="258.248" gradientUnits="userSpaceOnUse">
<stop stop-color="#92003F"/>
<stop offset="1" stop-color="#FF878D"/>
</linearGradient>
<linearGradient id="paint1_linear_11_556" x1="22.1365" y1="52.7635" x2="93.5277" y2="134.43" gradientUnits="userSpaceOnUse">
<stop stop-color="#39ABAD"/>
<stop offset="1" stop-color="#AFE5E2"/>
</linearGradient>
</defs>
</svg>
