<svg preserveAspectRatio="none" width="100%" height="100%" overflow="visible" style="display: block;" viewBox="0 0 48 48" fill="none" xmlns="http://www.w3.org/2000/svg">
<g id="Group 40120">
<rect id="Image" width="48" height="48" rx="8" fill="var(--fill-0, #9ED1D2)"/>
<path id="@" d="M24.6463 36.5846C22.5582 36.5846 20.7022 36.2996 19.0781 35.7295C17.4607 35.1661 16.0952 34.3342 14.9815 33.2338C13.8679 32.14 13.0227 30.8043 12.446 29.2267C11.8693 27.649 11.5777 25.846 11.571 23.8176C11.5777 21.8356 11.8726 20.0491 12.456 18.4582C13.0393 16.8607 13.8911 15.4952 15.0114 14.3616C16.1316 13.2215 17.5005 12.3465 19.1179 11.7366C20.7353 11.1268 22.5748 10.8219 24.6364 10.8219C26.5786 10.8219 28.2988 11.1168 29.7969 11.7068C31.3016 12.2968 32.571 13.1187 33.6051 14.1727C34.6458 15.2201 35.4313 16.4464 35.9617 17.8517C36.4986 19.2504 36.767 20.7684 36.767 22.4057C36.767 23.5392 36.6809 24.6131 36.5085 25.6273C36.3362 26.6348 36.0412 27.5297 35.6236 28.3119C35.2126 29.0941 34.6525 29.7172 33.9432 30.1812C33.2339 30.6386 32.3456 30.8872 31.2784 30.927C30.6089 30.9601 30.0223 30.8971 29.5185 30.7381C29.0147 30.579 28.607 30.3304 28.2955 29.9923C27.9905 29.6476 27.7983 29.2267 27.7188 28.7295H27.5994C27.447 29.1273 27.1586 29.4918 26.7344 29.8233C26.3168 30.1481 25.7997 30.4033 25.1832 30.5889C24.5668 30.7679 23.8807 30.8408 23.125 30.8077C22.3163 30.7679 21.5672 30.5823 20.8778 30.2508C20.1951 29.9128 19.5985 29.4421 19.0881 28.8389C18.5843 28.2291 18.1932 27.4933 17.9148 26.6315C17.6364 25.7698 17.4972 24.792 17.4972 23.6983C17.4972 22.631 17.6496 21.6898 17.9545 20.8744C18.2595 20.0591 18.6671 19.3631 19.1776 18.7863C19.6946 18.2096 20.2779 17.7589 20.9276 17.4341C21.5772 17.1026 22.2467 16.8905 22.9361 16.7977C23.652 16.6983 24.3248 16.7082 24.9545 16.8275C25.5843 16.9469 26.108 17.1292 26.5256 17.3744C26.9498 17.6197 27.215 17.8881 27.321 18.1798H27.4602V17.0662H30.2344V26.5321C30.241 27.0292 30.3603 27.4303 30.5923 27.7352C30.831 28.0401 31.1624 28.1926 31.5867 28.1926C32.117 28.1926 32.5445 27.9838 32.8693 27.5662C33.2008 27.1419 33.4394 26.4923 33.5852 25.6173C33.7377 24.7357 33.8106 23.6088 33.804 22.2366C33.8106 21.1097 33.6615 20.0889 33.3565 19.1741C33.0582 18.2527 32.634 17.444 32.0838 16.748C31.5336 16.052 30.8741 15.472 30.1051 15.0079C29.3428 14.5373 28.4943 14.1827 27.5597 13.944C26.625 13.7054 25.6274 13.5861 24.5668 13.5861C22.9427 13.5861 21.5142 13.8346 20.2813 14.3318C19.0483 14.8223 18.0142 15.5217 17.179 16.4298C16.3504 17.338 15.724 18.4151 15.2997 19.6613C14.8821 20.9009 14.6733 22.2731 14.6733 23.7778C14.6733 25.3886 14.892 26.8171 15.3295 28.0633C15.7737 29.3029 16.4233 30.347 17.2784 31.1954C18.1335 32.0439 19.1908 32.6869 20.4503 33.1244C21.7164 33.5619 23.1714 33.7807 24.8153 33.7807C25.571 33.7807 26.3101 33.721 27.0327 33.6017C27.7552 33.4824 28.4048 33.3432 28.9815 33.1841C29.5582 33.025 30.0024 32.8858 30.3139 32.7665L31.1591 35.292C30.7481 35.5042 30.1913 35.7096 29.4886 35.9085C28.7926 36.1074 28.0237 36.2698 27.1818 36.3957C26.3466 36.5217 25.5014 36.5846 24.6463 36.5846ZM23.9503 27.954C24.7921 27.954 25.465 27.7916 25.9688 27.4667C26.4725 27.1353 26.8338 26.6448 27.0526 25.9952C27.2713 25.3455 27.3774 24.5368 27.3707 23.569C27.3707 22.6675 27.2581 21.9284 27.0327 21.3517C26.8073 20.775 26.446 20.3474 25.9489 20.069C25.4517 19.7906 24.7921 19.6514 23.9702 19.6514C23.2277 19.6514 22.5947 19.8204 22.071 20.1585C21.554 20.4966 21.1563 20.9639 20.8778 21.5605C20.6061 22.1505 20.4702 22.8233 20.4702 23.579C20.4702 24.3346 20.5795 25.0472 20.7983 25.7167C21.0237 26.3796 21.3883 26.9199 21.892 27.3375C22.4025 27.7485 23.0885 27.954 23.9503 27.954Z" fill="var(--fill-0, white)"/>
</g>
</svg>
