<svg preserveAspectRatio="none" width="100%" height="100%" overflow="visible" style="display: block;" viewBox="0 0 41 41" fill="none" xmlns="http://www.w3.org/2000/svg">
<g id="Group 40120">
<rect id="Image" x="1.95313e-05" y="9.76562e-06" width="40.77" height="40.77" rx="6.795" fill="var(--fill-0, #9ED1D2)"/>
<path id="@" d="M20.9342 31.0741C19.1607 31.0741 17.5842 30.832 16.2047 30.3478C14.8309 29.8692 13.6711 29.1626 12.7252 28.228C11.7793 27.299 11.0614 26.1645 10.5716 24.8245C10.0817 23.4844 9.83401 21.953 9.82838 20.2301C9.83401 18.5466 10.0846 17.0293 10.58 15.678C11.0755 14.3211 11.799 13.1612 12.7505 12.1985C13.702 11.23 14.8647 10.4868 16.2385 9.96885C17.6123 9.45086 19.1747 9.19186 20.9258 9.19186C22.5754 9.19186 24.0365 9.44241 25.309 9.94351C26.5871 10.4446 27.6653 11.1428 28.5436 12.038C29.4276 12.9276 30.0947 13.9692 30.5452 15.1628C31.0012 16.3508 31.2293 17.6402 31.2293 19.0309C31.2293 19.9936 31.1561 20.9058 31.0097 21.7672C30.8633 22.623 30.6127 23.3831 30.258 24.0475C29.9089 24.7119 29.4332 25.2411 28.8307 25.6352C28.2283 26.0237 27.4738 26.2349 26.5673 26.2686C25.9987 26.2968 25.5004 26.2433 25.0725 26.1082C24.6446 25.9731 24.2983 25.7619 24.0337 25.4748C23.7747 25.182 23.6114 24.8245 23.5439 24.4022H23.4425C23.313 24.74 23.0681 25.0497 22.7078 25.3312C22.353 25.6071 21.9139 25.8238 21.3903 25.9815C20.8666 26.1335 20.2839 26.1954 19.642 26.1673C18.9551 26.1335 18.3189 25.9759 17.7334 25.6943C17.1534 25.4072 16.6467 25.0075 16.2132 24.4951C15.7853 23.9771 15.4531 23.3521 15.2166 22.6202C14.9801 21.8882 14.8619 21.0578 14.8619 20.1288C14.8619 19.2223 14.9914 18.4228 15.2504 17.7303C15.5094 17.0377 15.8556 16.4465 16.2892 15.9567C16.7283 15.4669 17.2238 15.084 17.7756 14.8081C18.3274 14.5266 18.896 14.3464 19.4816 14.2676C20.0897 14.1831 20.6611 14.1916 21.196 14.2929C21.7309 14.3943 22.1757 14.5491 22.5304 14.7574C22.8907 14.9658 23.116 15.1938 23.206 15.4415H23.3243V14.4956H25.6806V22.5357C25.6862 22.958 25.7875 23.2986 25.9846 23.5576C26.1873 23.8166 26.4688 23.9461 26.8292 23.9461C27.2796 23.9461 27.6427 23.7688 27.9186 23.4141C28.2001 23.0537 28.4028 22.502 28.5267 21.7588C28.6562 21.0099 28.7181 20.0528 28.7125 18.8873C28.7181 17.9301 28.5914 17.0631 28.3325 16.2861C28.0791 15.5035 27.7187 14.8166 27.2514 14.2254C26.7841 13.6342 26.2239 13.1415 25.5708 12.7474C24.9233 12.3477 24.2026 12.0464 23.4087 11.8437C22.6149 11.6411 21.7675 11.5397 20.8666 11.5397C19.4872 11.5397 18.2739 11.7508 17.2266 12.1731C16.1794 12.5898 15.3011 13.1838 14.5916 13.9551C13.8878 14.7265 13.3558 15.6414 12.9954 16.6999C12.6407 17.7528 12.4634 18.9183 12.4634 20.1963C12.4634 21.5645 12.6492 22.7778 13.0208 23.8363C13.398 24.8892 13.9498 25.776 14.6761 26.4967C15.4024 27.2174 16.3004 27.7635 17.3702 28.1351C18.4456 28.5067 19.6815 28.6925 21.0778 28.6925C21.7196 28.6925 22.3474 28.6418 22.9611 28.5405C23.5748 28.4391 24.1266 28.3209 24.6164 28.1858C25.1063 28.0506 25.4835 27.9324 25.7481 27.8311L26.466 29.9762C26.1169 30.1564 25.644 30.3309 25.0472 30.4998C24.456 30.6687 23.8029 30.8067 23.0878 30.9137C22.3784 31.0206 21.6605 31.0741 20.9342 31.0741ZM20.343 23.7434C21.0581 23.7434 21.6295 23.6055 22.0575 23.3296C22.4854 23.0481 22.7922 22.6315 22.978 22.0797C23.1638 21.5279 23.2539 20.841 23.2483 20.019C23.2483 19.2533 23.1526 18.6255 22.9611 18.1356C22.7697 17.6458 22.4628 17.2826 22.0406 17.0462C21.6183 16.8097 21.0581 16.6915 20.3599 16.6915C19.7293 16.6915 19.1916 16.835 18.7468 17.1222C18.3077 17.4093 17.9698 17.8063 17.7334 18.313C17.5025 18.8141 17.3871 19.3856 17.3871 20.0274C17.3871 20.6693 17.48 21.2745 17.6658 21.8432C17.8572 22.4062 18.1669 22.8651 18.5948 23.2198C19.0283 23.5689 19.6111 23.7434 20.343 23.7434Z" fill="var(--fill-0, white)"/>
</g>
</svg>
