<svg preserveAspectRatio="none" width="100%" height="100%" overflow="visible" style="display: block;" viewBox="0 0 21 20" fill="none" xmlns="http://www.w3.org/2000/svg">
<g id="In">
<path id="Vector" d="M10.7154 11.1351V19.8647H7.20412V4.96618H10.5602V7.49777H10.7348C11.0775 6.6636 11.6239 6.0008 12.374 5.50935C13.1306 5.01791 14.065 4.77219 15.1772 4.77219C16.2053 4.77219 17.1009 4.99204 17.864 5.43176C18.6335 5.87147 19.2284 6.50841 19.6487 7.34257C20.0755 8.17674 20.2856 9.18873 20.2792 10.3785V19.8647H16.7679V10.9217C16.7679 9.9259 16.5093 9.14669 15.9919 8.58412C15.4811 8.02154 14.773 7.74026 13.8677 7.74026C13.2534 7.74026 12.707 7.87605 12.2285 8.14764C11.7565 8.41276 11.3846 8.79751 11.1131 9.30189C10.8479 9.80627 10.7154 10.4173 10.7154 11.1351Z" fill="var(--fill-0, white)"/>
<path id="Vector_2" d="M3.59854 1.14441e-05V19.8647H0V1.14441e-05H3.59854Z" fill="var(--fill-0, white)"/>
</g>
</svg>
