<svg preserveAspectRatio="none" width="100%" height="100%" overflow="visible" style="display: block;" viewBox="0 0 122 122" fill="none" xmlns="http://www.w3.org/2000/svg">
<g id="Group 49" filter="url(#filter0_d_10_412)">
<path id="Vector" d="M57.1297 2.87213C57.9438 2.57037 58.8529 2.67779 59.5741 3.1612C60.6878 3.90792 62.9214 5.5924 64.4442 8.44928C64.4747 8.50651 64.5018 8.5651 64.5311 8.62213C66.6923 7.07197 68.9542 6.65926 69.91 6.52448C70.9379 6.3796 71.9582 6.83628 72.535 7.69928C73.1118 8.56241 73.1432 9.68001 72.6161 10.5743C71.6437 12.2235 69.3485 16.7185 70.5711 22.4874C70.7901 23.4923 71.0883 24.4249 71.4315 25.2813C75.7067 25.012 80.5542 25.3291 85.6795 26.8135L86.4432 27.043C102.403 32.003 113.046 46.0764 116.034 60.6339C116.052 60.7194 116.064 60.8057 116.073 60.8917C119.846 79.9007 110.316 98.0325 98.1561 106.116L98.1542 106.117C92.6245 109.788 86.0543 111.7 83.2733 112.524L83.2655 112.525C74.4154 115.119 66.7027 115.421 61.5008 115.243C56.1472 115.747 48.1329 115.878 38.8387 113.641C31.2906 111.826 23.7632 110.054 16.9315 103.742V103.743C9.90399 97.2561 6.75649 88.9213 5.37095 82.0518C3.98385 75.1746 4.317 69.5501 4.42564 68.2042C4.70354 64.7472 6.12199 47.4405 21.4002 36.0655L21.4061 36.0606C26.848 32.0322 32.5261 29.8723 37.7235 28.8048C37.5491 27.7611 37.0734 26.7201 36.2635 25.7881V25.7872C34.4902 23.7552 31.3776 22.5775 28.2079 22.9073C28.1301 22.9176 28.0633 22.927 28.0223 22.9317C27.944 22.9407 27.9244 22.9436 27.9129 22.9454C27.8851 22.9497 27.8569 22.9537 27.829 22.9571C27.5364 22.9928 27.2262 23.0519 26.8924 23.1309C26.8125 23.1553 26.6996 23.1841 26.5614 23.209C26.5131 23.2181 26.4646 23.2251 26.4159 23.2315C26.387 23.2352 26.3575 23.2403 26.327 23.2432C26.2987 23.246 26.2704 23.2482 26.242 23.2501C26.195 23.2532 26.1465 23.2551 26.0965 23.2559C26.0858 23.2561 26.0751 23.2579 26.0643 23.2579H26.0536C24.5607 23.2579 23.3505 22.0476 23.3504 20.5548C23.3504 19.6035 23.842 18.768 24.5848 18.2862C25.4578 17.6432 26.9582 16.6995 29.1024 16.1602H29.1034C29.8646 15.969 30.5978 15.8552 31.286 15.796C31.1657 15.0121 31.3947 14.2048 31.9305 13.5977C32.5775 12.8648 33.5705 12.5376 34.5262 12.7432C35.4087 12.9331 36.3351 13.1482 37.2909 13.3985H37.2899C37.6872 13.5023 38.0786 13.6071 38.4637 13.7139C38.476 13.6312 38.4886 13.5486 38.5008 13.4659C38.6658 12.3517 38.8294 11.2409 38.9911 10.1309C39.1192 9.25151 39.672 8.49156 40.4686 8.09772C41.2655 7.70392 42.2057 7.72667 42.9823 8.15924C44.6253 9.07453 46.6662 10.3958 48.746 12.2423L49.1629 12.6182L49.1688 12.6241L49.8641 13.2881C50.3057 13.7231 50.7154 14.1542 51.0965 14.5762C51.6282 13.728 52.1565 12.8161 52.6629 11.8389C54.022 9.21101 54.8886 6.76412 55.4637 4.68561C55.6953 3.84866 56.3155 3.17407 57.1297 2.87213Z" fill="var(--fill-0, #F2404C)" stroke="var(--stroke-0, white)" stroke-width="5.40629" stroke-linejoin="round"/>
<g id="Group 48">
<g id="Group">
<path id="Vector_2" d="M26.0445 20.5547C26.704 20.0357 27.9367 19.2248 29.7532 18.7707C32.1211 18.176 34.1755 18.5112 35.1054 18.7166C34.7161 17.6029 34.3377 16.4892 33.9484 15.3755C34.8026 15.5593 35.6893 15.7648 36.5975 16.0026C38.0464 16.3811 39.4088 16.7811 40.6739 17.192C40.9982 14.9646 41.3334 12.7372 41.6578 10.5099C43.2689 11.4073 45.3016 12.7264 47.3236 14.597C49.0752 16.2189 50.3403 17.7975 51.2377 19.095C52.5028 17.4299 53.8328 15.4296 55.0546 13.0724C56.5251 10.2504 57.455 7.6229 58.0713 5.39551C59.012 6.02264 60.8393 7.41746 62.0611 9.70973C63.5749 12.5534 63.2721 15.0944 63.0883 16.0783C63.1316 15.4404 63.4127 12.9535 65.8023 11.0505C67.5107 9.6881 69.4461 9.32047 70.2895 9.20154C69.5867 10.0665 68.9055 11.018 68.2567 12.0561C64.2561 18.522 63.7911 25.3231 63.975 29.6805C61.3151 30.2104 57.3036 30.5239 52.5785 29.7454C49.5618 29.248 47.2803 28.3614 45.5503 27.4315C40.782 24.8906 37.5274 20.6953 31.1912 20.1655C29.0071 19.9817 27.1906 20.2952 26.0553 20.5655L26.0445 20.5547Z" fill="var(--fill-0, #B72735)"/>
<path id="Vector_3" d="M96.6613 103.866C91.5145 107.282 85.3189 109.099 82.5077 109.931C73.9117 112.451 66.4294 112.721 61.4231 112.537C56.2764 113.035 48.5021 113.186 39.4736 111.013C31.8724 109.185 25.0172 107.531 18.7675 101.757C5.83571 89.8201 6.92778 70.8332 7.1224 68.422C7.39272 65.0593 8.7551 48.8513 23.0169 38.2333C28.8449 33.9191 34.9648 31.8972 40.3927 31.0754C40.8036 28.6426 40.1008 26.08 38.3059 24.0148C35.4946 20.7926 30.5316 19.3762 26.0444 20.5548C27.0175 20.1871 31.6778 18.5436 36.911 20.3926C39.8304 21.4306 41.6578 23.0957 42.5444 24.0364C42.5444 23.5823 42.6201 22.274 43.6905 21.0413C44.9123 19.6249 46.6424 19.2789 47.1181 19.1924C47.3019 20.0898 47.7344 21.5495 48.9022 23.0525C49.3563 23.6472 50.2862 24.8257 52.0486 25.7989C53.3029 26.5017 54.4815 26.8153 55.26 26.9666C55.9087 24.7933 56.5575 22.6308 57.2279 20.4466C57.6604 19.0194 58.1037 17.5921 58.547 16.1757C59.3147 16.4027 61.1745 17.0407 62.7098 18.6734C63.9533 19.9817 64.3858 21.3225 64.548 22.0037C64.602 20.2953 64.9156 17.7003 66.278 14.8133C67.489 12.2399 69.0784 10.391 70.2786 9.20157C69.1758 11.0721 66.4834 16.3054 67.9215 23.0633C68.3432 24.9987 69.0136 26.6963 69.7596 28.1344C74.2036 27.6586 79.3937 27.81 84.9189 29.4103C100.197 33.8326 110.512 47.2186 113.378 61.1776C117.054 79.1373 108.015 96.3185 96.6613 103.866Z" fill="var(--fill-0, #F2404C)"/>
<path id="Vector_4" d="M108.614 61.558C109.383 61.5088 109.958 60.7201 109.899 59.7964C109.84 58.8727 109.169 58.1637 108.4 58.2129C107.631 58.2621 107.056 59.0508 107.115 59.9745C107.174 60.8982 107.845 61.6071 108.614 61.558Z" fill="var(--fill-0, #F45867)"/>
<path id="Vector_5" d="M107.754 56.7034C108.523 56.6542 109.098 55.8655 109.039 54.9418C108.98 54.0181 108.309 53.3091 107.54 53.3583C106.771 53.4075 106.196 54.1962 106.255 55.1199C106.314 56.0436 106.985 56.7526 107.754 56.7034Z" fill="var(--fill-0, #F45867)"/>
<path id="Vector_6" d="M104.132 59.2972C104.901 59.2481 105.476 58.4594 105.417 57.5357C105.358 56.612 104.687 55.903 103.918 55.9522C103.149 56.0014 102.574 56.79 102.633 57.7138C102.692 58.6375 103.363 59.3464 104.132 59.2972Z" fill="var(--fill-0, #F45867)"/>
<path id="Vector_7" d="M103.773 53.6657C104.542 53.6165 105.117 52.8279 105.058 51.9041C104.999 50.9804 104.328 50.2715 103.559 50.3207C102.79 50.3698 102.215 51.1585 102.274 52.0822C102.333 53.0059 103.004 53.7149 103.773 53.6657Z" fill="var(--fill-0, #F45867)"/>
<path id="Vector_8" d="M107.29 66.3582C108.059 66.309 108.634 65.5203 108.575 64.5966C108.516 63.6729 107.845 62.9639 107.076 63.0131C106.307 63.0623 105.732 63.851 105.791 64.7747C105.85 65.6984 106.521 66.4074 107.29 66.3582Z" fill="var(--fill-0, #F45867)"/>
<path id="Vector_9" d="M28.2102 101.118C28.5682 100.436 28.1939 99.5341 27.3743 99.104C26.5548 98.6739 25.6001 98.8781 25.2422 99.5603C24.8842 100.242 25.2584 101.144 26.078 101.574C26.8976 102.004 27.8522 101.8 28.2102 101.118Z" fill="var(--fill-0, #F45867)"/>
<path id="Vector_10" d="M32.8217 102.911C33.1796 102.229 32.8054 101.327 31.9858 100.897C31.1662 100.467 30.2116 100.671 29.8536 101.353C29.4957 102.035 29.8699 102.937 30.6895 103.367C31.5091 103.797 32.4637 103.593 32.8217 102.911Z" fill="var(--fill-0, #F45867)"/>
<path id="Vector_11" d="M32.4828 98.461C32.8408 97.7788 32.4666 96.8772 31.647 96.4471C30.8274 96.017 29.8728 96.2213 29.5148 96.9034C29.1568 97.5855 29.5311 98.4871 30.3507 98.9173C31.1702 99.3474 32.1249 99.1431 32.4828 98.461Z" fill="var(--fill-0, #F45867)"/>
<path id="Vector_12" d="M37.4828 101.083C37.8408 100.401 37.4666 99.4991 36.647 99.0689C35.8274 98.6388 34.8728 98.8431 34.5148 99.5252C34.1569 100.207 34.5311 101.109 35.3507 101.539C36.1703 101.969 37.1249 101.765 37.4828 101.083Z" fill="var(--fill-0, #F45867)"/>
<path id="Vector_13" d="M24.8149 97.4876C25.1729 96.8055 24.7986 95.9039 23.979 95.4738C23.1595 95.0436 22.2049 95.2479 21.8469 95.93C21.4889 96.6122 21.8631 97.5138 22.6827 97.9439C23.5023 98.374 24.4569 98.1697 24.8149 97.4876Z" fill="var(--fill-0, #F45867)"/>
</g>
<path id="Vector_14" d="M64.656 82.2296C64.537 82.381 64.3424 82.4891 64.1153 82.608C63.1098 83.1487 62.0501 83.5271 60.8932 83.6244C59.347 83.7542 57.8332 83.3433 56.4708 82.6297C56.3411 82.5648 56.2113 82.4891 56.1248 82.3593C55.9843 82.1431 56.0059 81.7322 56.2438 81.6025C56.4384 81.4943 56.6979 81.5376 56.9033 81.57C57.617 81.6782 58.309 81.916 59.0334 82.0025C60.6012 82.1863 62.0069 81.6998 63.4774 81.2565C63.964 81.1159 64.7749 80.9213 64.7857 81.6998C64.7857 81.9268 64.7316 82.089 64.6343 82.2188L64.656 82.2296Z" fill="var(--fill-0, #232323)"/>
<g id="Vector_15">
<path d="M31.0182 86.4576C33.6889 88.739 36.0568 89.5175 37.776 89.7879C41.2036 90.3393 43.431 89.1283 45.9179 90.761C46.318 91.0205 48.2318 92.3504 48.102 93.8966C47.9182 96.2213 43.3013 97.627 40.7063 98.0054C35.8622 98.7082 31.7534 96.7079 29.5044 95.3239" fill="var(--fill-0, #F2404C)"/>
<path d="M31.0182 86.4576C33.6889 88.739 36.0568 89.5175 37.776 89.7879C41.2036 90.3393 43.431 89.1283 45.9179 90.761C46.318 91.0205 48.2318 92.3504 48.102 93.8966C47.9182 96.2213 43.3013 97.627 40.7063 98.0054C35.8622 98.7082 31.7534 96.7079 29.5044 95.3239" stroke="var(--stroke-0, #B72735)" stroke-width="1.08126" stroke-linecap="round" stroke-linejoin="round"/>
</g>
<g id="Vector_16">
<path d="M97.6565 80.5323C95.3535 83.1706 93.1152 84.2843 91.4501 84.8141C88.1415 85.8629 85.7519 84.9871 83.5353 86.955C83.1785 87.2794 81.4809 88.858 81.8269 90.3718C82.3459 92.6424 87.1143 93.3669 89.7417 93.3669C94.629 93.3669 98.4134 90.7935 100.435 89.0851" fill="var(--fill-0, #F2404C)"/>
<path d="M97.6565 80.5323C95.3535 83.1706 93.1152 84.2843 91.4501 84.8141C88.1415 85.8629 85.7519 84.9871 83.5353 86.955C83.1785 87.2794 81.4809 88.858 81.8269 90.3718C82.3459 92.6424 87.1143 93.3669 89.7417 93.3669C94.629 93.3669 98.4134 90.7935 100.435 89.0851" stroke="var(--stroke-0, #B72735)" stroke-width="1.08126" stroke-linecap="round" stroke-linejoin="round"/>
</g>
<path id="Vector_17" opacity="0.55" d="M31.4513 83.2135C35.303 83.2135 38.4254 81.8097 38.4254 80.0779C38.4254 78.3461 35.303 76.9422 31.4513 76.9422C27.5996 76.9422 24.4772 78.3461 24.4772 80.0779C24.4772 81.8097 27.5996 83.2135 31.4513 83.2135Z" fill="var(--fill-0, #F38697)"/>
<path id="Vector_18" opacity="0.55" d="M90.3265 79.2688C94.1142 78.5696 96.9299 76.6221 96.6155 74.9191C96.3011 73.2162 92.9757 72.4025 89.188 73.1018C85.4003 73.801 82.5846 75.7484 82.899 77.4514C83.2134 79.1544 86.5388 79.9681 90.3265 79.2688Z" fill="var(--fill-0, #F38697)"/>
<g id="Group_2">
<path id="Vector_19" d="M38.5652 82.954C31.1261 81.4835 26.2713 74.2283 27.7418 66.7892C29.2123 59.3502 36.4675 54.4953 43.9066 55.9658C51.3456 57.4363 56.2005 64.6916 54.73 72.1306C53.2594 79.5697 46.0042 84.4245 38.5652 82.954Z" fill="var(--fill-0, white)"/>
<path id="Vector_20" d="M43.4741 80.3049C49.2188 80.3049 53.8758 75.6479 53.8758 69.9032C53.8758 64.1585 49.2188 59.5016 43.4741 59.5016C37.7294 59.5016 33.0724 64.1585 33.0724 69.9032C33.0724 75.6479 37.7294 80.3049 43.4741 80.3049Z" fill="var(--fill-0, #232323)"/>
<path id="Vector_21" d="M83.3833 80.878C90.444 78.0992 93.9256 70.0979 91.1468 63.0373C88.3679 55.9767 80.3666 52.495 73.306 55.2738C66.2454 58.0527 62.7638 66.054 65.5426 73.1146C68.3214 80.1752 76.3227 83.6568 83.3833 80.878Z" fill="var(--fill-0, white)"/>
<path id="Vector_22" d="M76.2146 79.3102C81.9592 79.3102 86.6162 74.6532 86.6162 68.9085C86.6162 63.1638 81.9592 58.5068 76.2146 58.5068C70.4699 58.5068 65.8129 63.1638 65.8129 68.9085C65.8129 74.6532 70.4699 79.3102 76.2146 79.3102Z" fill="var(--fill-0, #232323)"/>
</g>
</g>
</g>
<defs>
<filter id="filter0_d_10_412" x="0" y="0" width="121.223" height="121.47" filterUnits="userSpaceOnUse" color-interpolation-filters="sRGB">
<feFlood flood-opacity="0" result="BackgroundImageFix"/>
<feColorMatrix in="SourceAlpha" type="matrix" values="0 0 0 0 0 0 0 0 0 0 0 0 0 0 0 0 0 0 127 0" result="hardAlpha"/>
<feOffset dy="1.60816"/>
<feGaussianBlur stdDeviation="0.804082"/>
<feComposite in2="hardAlpha" operator="out"/>
<feColorMatrix type="matrix" values="0 0 0 0 0 0 0 0 0 0 0 0 0 0 0 0 0 0 0.25 0"/>
<feBlend mode="normal" in2="BackgroundImageFix" result="effect1_dropShadow_10_412"/>
<feBlend mode="normal" in="SourceGraphic" in2="effect1_dropShadow_10_412" result="shape"/>
</filter>
</defs>
</svg>
